<?xml version="1.0" encoding="utf-8"?>
<!-- Generator: Adobe Illustrator 19.0.0, SVG Export Plug-In . SVG Version: 6.00 Build 0)  -->
<svg version="1.1" id="Layer_1" xmlns="http://www.w3.org/2000/svg" xmlns:xlink="http://www.w3.org/1999/xlink" x="0px" y="0px"
	 viewBox="0 0 1003.9 1500" style="enable-background:new 0 0 1003.9 1500;" xml:space="preserve">
<g id="XMLID_2_">
	<path id="XMLID_211_" d="M531.1,0c-1.4,1.1-2.7,2.4-4.2,3.3c-12.6,6.9-24.4,14.8-35.2,24.3c-17.3,15.1-30.9,33-41.6,53.2
		c-14.9,28.2-23.6,58.4-29.2,89.5c-3.5,19.3-6,38.8-6.9,58.5c-0.7,14.2-1.4,28.5-1.8,42.8c-0.3,11.7-0.3,23.4,0,35.1
		c0.4,14.8,1,29.6,1.9,44.4c0.9,15.3,2.1,30.7,3.6,46c2.2,21.9,4.8,43.8,7.3,65.7c1.9,17.1,3.7,34.2,5.8,51.3
		c3.1,25.5,6.4,51.1,9.7,76.6c2.6,20.2,5.2,40.4,8,60.6c3.8,26.8,7.8,53.5,12,80.2c2.8,18.1,6.1,36.2,9.1,54.2
		c0.3,1.8,0.8,3.6,1.2,5.3c49.4,4.5,92.2,22.8,127.3,57.7c23.4,23.2,39.1,51.3,49.1,83.5c-6.1-3.5-11.3-6.6-16.7-9.5
		c-9.1-4.9-19.1-7.6-29.3-7.6c-12.8,0-24.3,4.5-34.1,12.9c-12.5,10.7-20.2,24.5-26,39.6c-7,18.3-10.3,37.4-12.5,56.9
		c-2.1,18.9-2.3,37.8-1.6,56.7c0.7,18.3,2.3,36.6,4.6,54.8c2.5,19.6,5.8,39.2,9.5,58.7c4.9,25.2,12.7,49.5,23.5,72.8
		c8.4,18.1,18.6,35.1,32,49.9c11.9,13.1,25.6,23.7,42.9,28.8c14.2,4.2,28.1,3.6,41.8-2.2c0.3-0.1,0.7-0.3,1-0.5
		c4.6-1.8,6.5-0.5,5.6,4.3c-0.8,4.2-2,8.4-3.8,12.2c-12.8,27.8-30.6,51.7-55.7,69.6c-19.3,13.7-40.7,22.1-64.2,24.8
		c-46.7,5.4-87.5-8.9-123.5-38.1c-19.9-16.1-35-36.2-46.7-58.9c-16.9-33-28.3-68.1-38.1-103.7c-7.6-27.9-13.8-56.2-18.5-84.7
		c-3.2-19.7-6.2-39.5-8.4-59.4c-2.1-19.1-3.3-38.4-4.7-57.6c-1.7-23-1.4-46-0.7-69c0.9-30.4,4.1-60.6,11-90.3
		c5.4-23.4,13.1-46,25.9-66.6c7.4-11.9,16.7-22.2,28.3-30.8c-1.2-13.9-2.5-27.9-3.6-41.9c-0.7-7.9-1.1-15.9-1.7-23.8
		c-1.7-21.2-3.5-42.4-5.1-63.6c-1-13.3-1.8-26.6-2.7-39.9c-0.9-13.3-2-26.6-2.9-39.9c-0.6-9.4-1-18.9-1.6-28.3
		c-0.9-14.2-2-28.4-2.8-42.7c-0.7-10.9-1.1-21.8-1.6-32.8c-0.7-13.5-1.3-27-2-40.5c-0.5-9.3-0.9-18.5-1.3-27.8
		c-0.6-13.5-1.4-27-1.8-40.5c-0.5-19.5-1-39-1.1-58.4c0-14.8,0.2-29.7,1.1-44.5c2-33.1,5.2-66.1,12-98.6
		c5.9-28.6,14.2-56.4,26.8-82.9c9.7-20.2,21.9-38.8,37.7-54.8c5.6-5.6,12-10.5,18.2-15.5c1.4-1.1,3.3-1.7,5-2.1
		c20.4-4.8,40.8-9.5,61.2-14.3c2.1-0.5,4.2-1.4,6.2-2.1C529.7,0,530.4,0,531.1,0z"/>
	<path id="XMLID_189_" d="M413.5,30.7c-1.2,1.4-2.1,2.6-3.1,3.6c-16.7,14.9-29.3,32.9-39.7,52.6c-15.3,28.9-24.7,59.9-31.4,91.8
		c-5.8,27.2-9.6,54.7-12,82.4c-1.1,12.4-1.9,24.8-2.4,37.1c-0.8,20.4-1.5,40.8-1.8,61.2c-0.3,21.9-0.2,43.8,0,65.7
		c0.2,24.5,0.7,49,1.1,73.5c0.3,18.9,0.7,37.8,1.1,56.8c0.3,14.5,0.7,28.9,1.1,43.4c0.3,12.2,0.7,24.5,1.1,36.7
		c0.7,18.5,1.3,37,2.3,55.6c0.8,15.9,2,31.8,2.8,47.7c0.6,11.7,1,23.3,1.6,35c0.3,6.8,0.6,13.7,1,20.5c0.2,2.8-0.3,4.9-2.4,6.9
		c-28.2,26.4-44.7,59.7-55.4,96.3c-7.5,25.9-12.2,52.3-15,79.1c-2.6,24.7-4.4,49.5-4.5,74.3c0,12.2-0.7,24.5-0.6,36.7
		c0.1,13.3,0.5,26.7,1.1,40c1,21.5,2.3,42.9,5.4,64.2c3.7,25.1,8,50.1,13.9,74.9c6.8,28.7,15.4,56.9,27,84.1
		c11.2,26.3,25,50.9,43.5,72.9c21.8,26,48.6,44.4,81.4,53.7c5.3,1.5,10.6,3.5,15.7,5.6c3,1.2,7,2.6,6.7,6.5
		c-0.3,4.2-4.8,4.3-7.9,4.7c-13.2,1.8-26.4,3.8-39.7,4.7c-15.9,1-31.9,1.5-47.8,1.1c-43.5-1.1-85.4-9.2-124.6-28.9
		c-17.3-8.7-33.1-19.7-47.3-33c-25.4-23.7-42.6-52.5-54-85.1c-7.2-20.6-11.2-41.9-15.2-63.2c-5.1-26.8-9.3-53.7-11.5-80.8
		c-1.4-17.2-2.5-34.4-3.3-51.6c-0.6-12.4-1-24.9-0.7-37.3c0.6-25.9,2.3-51.8,6-77.5c3.6-25,8.7-49.7,16.1-73.8
		c12.1-39.9,29.5-77.2,55.6-110.1c11.2-14.2,23.8-27,38.1-38.1c3.9-3,6.2-5.8,4.8-11.1c-1-3.7-0.4-7.7-0.6-11.6
		c-0.4-12.4-0.8-24.8-1.1-37.3c-0.4-15-0.8-30-1.1-45.1c-0.4-16.3-0.9-32.6-1.1-49c-0.3-26.7-0.6-53.5-0.7-80.2
		c-0.1-30.5-0.2-60.9,0-91.4c0.1-17.8,0.7-35.6,1.1-53.4c0.3-11.9,0.7-23.7,1.1-35.6c0.7-17.2,1.4-34.4,2.2-51.7
		c0.6-12.6,1.2-25.2,2.3-37.7c2.3-28,4.2-56.2,7.7-84.1c3.4-27,9.6-53.6,17.7-79.7c6.9-22.2,15.9-43.5,28.3-63.3
		c6.8-10.7,14.7-20.5,23.4-29.6c1.7-1.8,3.7-2.9,6.1-3.5c35.5-8.7,70.9-17.4,106.4-26.1C412.3,30.3,412.5,30.4,413.5,30.7z"/>
	<path id="XMLID_188_" d="M662.6,737.8c-0.4-18-0.8-35.6-1.3-53.2c-0.3-9.6-0.6-19.3-1.1-28.9c-0.9-17.6-1.9-35.1-2.9-52.7
		c-0.5-10-0.9-20-1.6-30c-0.8-12.7-1.9-25.5-2.9-38.2c-0.9-11.1-1.5-22.2-2.7-33.2c-2.3-22.8-4.6-45.7-7.4-68.5
		c-2.7-21.9-5.6-43.7-9.1-65.5c-7.3-44.7-16.6-88.9-31.1-131.9c-7.1-21.1-15.4-41.8-26.7-61c-8.6-14.6-18.5-28.3-32-38.9
		c-12.4-9.7-26.3-15.2-42.1-15.1c-4,0-8.1,0.7-12.6,1.2c0.3-1.1,0.3-1.7,0.6-2.3c8.4-19.6,20.2-36.8,37.7-49.4
		c20.7-15,43.2-17.7,66.9-8c6.5,2.7,12.8,6,18.6,10c15.3,10.5,30.2,21.4,43.5,34.6c15.8,15.7,28.6,33.6,39.4,53
		c15.9,28.7,27.4,59.2,37.3,90.4c11,34.5,20,69.5,27.3,104.9c7.5,36.1,14.3,72.3,20.6,108.7c6,34.9,11.3,69.8,16.4,104.9
		c3.9,26.9,7,54,10.6,81c3.1,23.1,6.7,46.2,9.9,69.3c0.4,2.6,1.4,4,3.9,4.6c5.2,1.2,10.4,2.7,15.6,3.9c20.4,4.7,38,14.6,53.5,28.4
		c18.7,16.6,32.8,36.7,44.8,58.5c19.4,35.3,32.7,73.1,42.6,112c6,23.5,11.3,47.2,16.1,71c3.7,18.5,6.1,37.3,7.6,56.1
		c1.2,15.7,2.2,31.5,1.7,47.2c-1.2,36.6-6.7,72.3-22,106c-9.1,20.1-21,38.3-36.2,54.4c-19.1,20.3-41.5,35.8-66.3,48.1
		c-20.5,10.2-42,17.8-64.1,23.8c-1.9,0.5-3.8,0.8-6,1.3c4.4-10.9,8.8-21.1,12.6-31.5c8-22,13.5-44.7,17.2-67.8
		c3.8-23.7,5.9-47.4,5.7-71.4c0-1.8,0.3-3.8,1.3-5.2c9.4-14.2,13.1-30.1,15.4-46.6c2.2-15.8,3.4-31.7,2.9-47.7
		c-1.3-39.4-7.3-77.8-23.2-114.3c-9.6-22.2-22.5-42.2-40.2-58.9c-13.4-12.6-28.7-22.3-46-28.6c-4-1.5-7-3.6-9.7-6.9
		c-15.8-19.1-33.5-36.2-54.2-50c-23.5-15.6-49-26.2-77.3-29.2c-0.7-0.1-1.4-0.3-2.2-0.5c-0.5-0.2-1-0.4-2.2-0.8
		C625.8,760,643.2,747.4,662.6,737.8z"/>
	<path id="XMLID_187_" d="M244,108c-2,3.5-4.1,7-6,10.5c-17.8,32.7-30,67.4-36.8,103.9c-4.6,24.7-8.4,49.7-11.9,74.6
		c-1.6,11.5-2.1,23.2-2.8,34.9c-0.9,16.1-1.6,32.2-2.3,48.3c-0.4,8.9-0.8,17.8-1.1,26.7c-0.5,17.1-0.8,34.1-1.1,51.2
		c-0.4,26.2-0.9,52.3-1.1,78.5c-0.4,63.2-0.6,126.3-0.7,189.5c0,13.7,0.7,27.4,1.1,41.2c0.3,13.4,0.6,26.7,0.7,40.1
		c0,4.1-0.6,8.1-0.6,12.2c0,2.8-1.7,3.8-3.6,5.1c-11.2,7.1-21.2,15.6-30.3,25.2c-16.4,17.4-29.7,37-40.7,58.2
		C88.2,943.3,76,981,67.3,1019.8c-5.5,24.2-9.4,48.7-11.9,73.5c-1.3,12.2-2.2,24.4-2.6,36.6c-0.7,18.9-1.4,37.8-1.1,56.8
		c0.6,31.9,3.9,63.5,9.5,95c6.3,35.5,18.4,69.1,32,102.2c1.7,4.1,3.7,8.1,5.6,12.1c0.9,1.9,1,4-0.7,5c-1.4,0.8-3.7,0.9-5.2,0.4
		c-1.8-0.7-3.4-2.2-4.8-3.7c-24.1-25.7-41-55.8-54.1-88.2c-14.6-36.3-24.1-74-29.4-112.7c-3.6-26.5-5.2-53.1-4.5-79.9
		C1.5,1062.6,11,1010.1,32.6,960c12.6-29.3,29.1-56.3,49.9-80.6c11-12.8,23-24.7,36.2-35.2c2.5-2,3.4-4,3.3-7
		c-0.2-18.8-0.2-37.5-0.5-56.3c-0.2-16.9-0.9-33.8-1.1-50.6c-0.5-42.9-0.8-85.8-1.1-128.7c-0.1-9.7,0.2-19.3,0.4-29
		c0.3-11.9,0.6-23.7,1.1-35.6c0.6-15.2,1.2-30.4,2.3-45.5c1.6-23.5,3.3-46.9,5.6-70.3c4.2-42.4,10-84.6,18.9-126.3
		c8.5-39.6,19.2-78.5,35.6-115.7c9.7-22,21.2-42.9,35.8-62c2-2.6,4.2-4.4,7.5-5.2c5.5-1.4,11-3.2,16.5-4.8
		C243.4,107.5,243.7,107.8,244,108z"/>
	<path id="XMLID_186_" d="M706.3,1165.7c-0.7,22.7-1.4,43.5-6.8,63.7c-2.9,10.7-7.7,20.4-15.6,28.4c-11.5,11.7-27.7,13-41.2,4.5
		c-8.9-5.5-15.5-13.2-21-21.9c-9.9-15.4-16.4-32.3-21.4-49.9c-4.9-17.5-7.9-35.4-10.1-53.4c-2.6-21-3.8-42.1-3.1-63.2
		c0.5-17.3,2.1-34.5,9-50.6c2.8-6.6,6.3-13.1,10.7-18.7c13.5-17.5,34.2-19.5,51.3-5.5c10,8.2,16.7,18.8,22.1,30.3
		c10.5,22.5,16.4,46.4,20.3,70.8c2.6,16.5,4.6,33,4.9,49.7C705.5,1155.8,706.1,1161.7,706.3,1165.7z"/>
</g>
</svg>
