<?xml version="1.0" encoding="utf-8"?>
<!-- Generator: Adobe Illustrator 19.0.0, SVG Export Plug-In . SVG Version: 6.00 Build 0)  -->
<svg version="1.1" id="Layer_1" xmlns="http://www.w3.org/2000/svg" xmlns:xlink="http://www.w3.org/1999/xlink" x="0px" y="0px"
	 viewBox="0 0 191 35" style="enable-background:new 0 0 191 35;" xml:space="preserve">
<style type="text/css">
	.st0{fill:#1E306D;}
	.st1{fill:#ED8313;}
	.st2{fill:#E10020;}
	.st3{fill-rule:evenodd;clip-rule:evenodd;fill:#1E306D;}
	.st4{fill:#FFFFFF;}
	.st5{fill-rule:evenodd;clip-rule:evenodd;fill:#FFFFFF;}
	.st6{fill:#00589F;}
	.st7{fill:#F9A51A;}
	.st8{fill:#EC1C24;}
	.st9{fill-rule:evenodd;clip-rule:evenodd;fill:#FFF100;}
	.st10{fill-rule:evenodd;clip-rule:evenodd;fill:#FFF100;stroke:#B85D2E;stroke-width:0.1;stroke-miterlimit:2.6131;}
	.st11{fill-rule:evenodd;clip-rule:evenodd;fill:#EC1C24;stroke:#B85D2E;stroke-width:0.1;stroke-miterlimit:2.6131;}
	.st12{fill-rule:evenodd;clip-rule:evenodd;fill:none;stroke:#B85D2E;stroke-width:0.1;stroke-miterlimit:2.6131;}
</style>
<g id="XMLID_627_">
	<g id="XMLID_48_">
		<polygon id="XMLID_41_" class="st0" points="0,0 0,35 60,35 60,0 0,0 		"/>
		<g id="XMLID_2_">
			<path id="XMLID_40_" class="st1" d="M24.9,17.5c0-8.6,7-15.5,15.5-15.5c8.6,0,15.5,7,15.5,15.5c0,8.6-7,15.5-15.5,15.5
				C31.8,33,24.9,26.1,24.9,17.5L24.9,17.5z"/>
			<path id="XMLID_39_" class="st2" d="M30,5.9c0,0-0.8,0.7-1.4,1.4h2.8c0,0,0.9,1,1.3,1.8h-5.4c0,0-0.5,0.8-0.9,1.5h7.1
				c0,0,0.7,1.2,0.8,1.9h-8.7c0,0-0.3,0.8-0.4,1.5l9.5,0c0.3,1.2,0.9,4.7-0.4,8.5l-8.6,0c0.1,0.5,0.4,1.1,0.6,1.5h7.4
				c-0.3,0.6-0.7,1.4-1,1.8l-5.4,0c0.3,0.4,0.7,1.1,1,1.4l3.3,0C31.1,28.1,30,29,30,29h0l0,0c-2.8,2.5-6.4,4-10.4,4
				c-8.6,0-15.5-7-15.5-15.5C4.1,8.9,11,2,19.6,2C23.6,2,27.2,3.5,30,5.9L30,5.9z"/>
			<path id="XMLID_38_" class="st0" d="M22.3,15.3l-0.3,1.4l-1.4,0c0,0-0.7,0.2-0.7,0.5c0,0.3,0.5,0.6,1.3,1
				c0.8,0.3,0.8,1.2,0.7,1.8c-0.1,0.6-0.2,1.9-2.4,1.9c-1.3,0-1.9-0.2-1.9-0.2l0.3-1.4c0,0,1.6,0.4,2,0.2c0.4-0.3,0.8-0.7,0.1-1
				c-0.7-0.3-1.8-0.8-1.8-1.9c0-1.1,0.5-1.8,1.2-2.1C20.2,15.1,21.4,15.1,22.3,15.3L22.3,15.3z"/>
			<polygon id="XMLID_37_" class="st0" points="11.6,21.7 10,21.7 10.9,16.2 8.9,21.7 7.8,21.7 7.6,16 6.6,21.7 5.1,21.7 6.5,13.4 
				8.3,13.4 9,18.2 11.1,13.4 13,13.4 11.6,21.7 			"/>
			<path id="XMLID_36_" class="st0" d="M23.7,21.8c-0.5,0-0.9-0.1-1.1-0.3c-0.2-0.2-0.3-0.6-0.3-1c0-0.1,0-0.2,0-0.3
				c0-0.1,0-0.3,0-0.4l1-5.3h1.5l-0.2,1H26l-0.2,1.3h-1.4L24,19c0,0.1,0,0.3-0.1,0.5c0,0.1,0,0.3,0,0.4c0,0.2,0,0.4,0.1,0.5
				c0.1,0.1,0.2,0.1,0.4,0.1c0.1,0,0.2,0,0.3-0.1c0.1,0,0.2-0.1,0.3-0.1h0.1l-0.2,1.3c-0.2,0.1-0.3,0.1-0.5,0.1
				C24.2,21.8,24,21.8,23.7,21.8L23.7,21.8z"/>
			<path id="XMLID_35_" class="st0" d="M34.4,17.2c-0.3-0.3-1-0.2-1.2,0.3l-0.7,4.2H31l1.1-6.3h1.5l0,0.5c0.3-0.3,0.6-0.5,1.4-0.5
				C35,15.4,34.4,16.4,34.4,17.2L34.4,17.2z"/>
			<path id="XMLID_34_" class="st0" d="M37.2,21.9c-0.8,0-1.5-0.3-1.9-0.8c-0.5-0.5-0.7-1.3-0.7-2.4c0-0.8,0.1-1.5,0.3-2.2
				c0.2-0.7,0.5-1.2,0.8-1.7c0.3-0.5,0.7-0.8,1.2-1.1c0.5-0.3,1-0.4,1.5-0.4c0.4,0,0.8,0.1,1.2,0.2c0.2,0.1,0.5,0.2,0.5,0.2l-0.3,2
				c-0.2-0.2-0.3-0.4-0.5-0.5c-0.3-0.2-0.6-0.3-0.9-0.3c-0.6,0-1.1,0.3-1.5,1c-0.4,0.7-0.6,1.5-0.6,2.5c0,0.7,0.1,1.2,0.3,1.4
				c0.2,0.3,0.5,0.4,1,0.4c0.4,0,0.7-0.1,1.1-0.3c0.2-0.1,0.3-0.2,0.5-0.3l-0.3,1.9c0,0-0.2,0.1-0.3,0.1c-0.2,0.1-0.4,0.1-0.6,0.2
				C37.8,21.8,37.5,21.9,37.2,21.9L37.2,21.9z"/>
			<path id="XMLID_31_" class="st0" d="M15.2,21.5c-0.1,0-0.1,0.1-0.2,0.1c-0.2,0.1-0.3,0.2-0.4,0.2c-0.1,0-0.3,0.1-0.6,0.1
				c-0.4,0-0.7-0.2-0.9-0.4c-0.2-0.3-0.4-0.7-0.4-1.1c0-0.5,0.1-0.9,0.3-1.3c0.2-0.3,0.4-0.6,0.8-0.8c0.3-0.2,0.7-0.3,1.1-0.4
				l0.3-0.1c0.4-0.1,0.7-0.1,1.1-0.1c0,0,0-0.1,0-0.1c0-0.1,0-0.1,0-0.2c0-0.3-0.1-0.4-0.3-0.6c-0.2-0.1-0.5-0.1-0.8-0.1h-0.1
				c-0.2,0-0.5,0.1-0.7,0.2C14.2,16.9,14,17,13.8,17h-0.1l0.2-1.5c0.2-0.1,0.4-0.1,0.8-0.2c0.2-0.1,0.3-0.1,0.5-0.1
				c0.2,0,0.4,0,0.6,0c0.7,0,1.3,0.1,1.6,0.4c0.3,0.3,0.5,0.7,0.5,1.2c0,0.1,0,0.2,0,0.3c0,0.1,0,0.2,0,0.3l-0.7,4.3h-1.5l0.1-0.7
				c-0.1,0.1-0.2,0.2-0.3,0.3C15.3,21.4,15.3,21.4,15.2,21.5L15.2,21.5z M15.2,18.9c-0.2,0-0.3,0.1-0.4,0.1
				c-0.2,0.1-0.3,0.2-0.4,0.3c-0.1,0.2-0.1,0.4-0.1,0.6c0,0.2,0.1,0.4,0.2,0.4c0.1,0.1,0.3,0.1,0.5,0.1c0.1,0,0.1,0,0.2,0
				c0.1,0,0.1-0.1,0.2-0.1c0.2-0.1,0.3-0.2,0.5-0.3l0.2-1.3c-0.3,0-0.5,0.1-0.7,0.1C15.3,18.8,15.3,18.9,15.2,18.9L15.2,18.9z"/>
			<path id="XMLID_28_" class="st0" d="M28.1,16.5c-0.2,0-0.4,0.1-0.5,0.3c-0.2,0.2-0.4,0.5-0.5,0.9h1h1c0-0.1,0-0.1,0-0.2
				c0,0,0-0.1,0-0.2c0-0.3-0.1-0.5-0.2-0.7c-0.1-0.1-0.3-0.2-0.6-0.2C28.2,16.5,28.1,16.5,28.1,16.5L28.1,16.5z M28.1,20.4h0.2
				c0.3,0,0.6-0.1,0.9-0.2c0.3-0.2,0.5-0.3,0.7-0.5h0.2l-0.3,1.6c-0.3,0.2-0.6,0.3-0.9,0.4c-0.3,0.1-0.6,0.1-0.9,0.1h-0.1
				c-0.8,0-1.4-0.2-1.8-0.7c-0.4-0.5-0.6-1.1-0.6-1.9c0-0.6,0.1-1.1,0.2-1.6c0.1-0.5,0.3-0.9,0.6-1.3c0.3-0.4,0.6-0.6,0.9-0.8
				c0.3-0.1,0.6-0.2,0.8-0.3c0.1,0,0.3,0,0.4,0c0.7,0,1.2,0.2,1.6,0.6c0.3,0.4,0.5,0.9,0.5,1.7c0,0.3,0,0.5,0,0.8
				c0,0.2-0.1,0.5-0.1,0.7h-2.3h-1.2V19v0.1c0,0.4,0.1,0.8,0.3,1C27.4,20.3,27.7,20.4,28.1,20.4L28.1,20.4z"/>
			<path id="XMLID_25_" class="st0" d="M42,21.5c-0.1,0-0.1,0.1-0.2,0.1c-0.1,0.1-0.3,0.2-0.4,0.2c-0.1,0-0.3,0.1-0.6,0.1
				c-0.4,0-0.7-0.2-0.9-0.4c-0.2-0.3-0.4-0.7-0.4-1.1c0-0.5,0.1-0.9,0.3-1.3c0.2-0.3,0.4-0.6,0.8-0.8c0.3-0.2,0.7-0.3,1.1-0.4
				c0.1,0,0.2,0,0.3-0.1c0.3-0.1,0.7-0.1,1.1-0.1c0,0,0-0.1,0-0.1c0-0.1,0-0.1,0-0.2c0-0.3-0.1-0.4-0.3-0.6
				c-0.2-0.1-0.5-0.1-0.8-0.1H42c-0.2,0-0.5,0.1-0.7,0.2c-0.3,0.1-0.5,0.2-0.7,0.3h-0.1l0.2-1.5c0.2-0.1,0.4-0.1,0.8-0.2
				c0.2-0.1,0.3-0.1,0.5-0.1c0.2,0,0.4,0,0.6,0c0.7,0,1.3,0.1,1.6,0.4c0.3,0.3,0.5,0.7,0.5,1.2c0,0.1,0,0.2,0,0.3c0,0.1,0,0.2,0,0.3
				l-0.7,4.3h-1.5l0.1-0.7c-0.1,0.1-0.2,0.2-0.3,0.3L42,21.5L42,21.5z M42,18.9c-0.2,0-0.3,0.1-0.4,0.1c-0.2,0.1-0.3,0.2-0.4,0.3
				C41.1,19.5,41,19.7,41,20c0,0.2,0.1,0.4,0.2,0.4c0.1,0.1,0.3,0.1,0.5,0.1c0.1,0,0.2,0,0.2,0c0.1,0,0.1-0.1,0.2-0.1
				c0.2-0.1,0.3-0.2,0.5-0.3l0.2-1.3c-0.3,0-0.5,0.1-0.7,0.1C42.1,18.8,42,18.9,42,18.9L42,18.9z"/>
			<path id="XMLID_24_" class="st0" d="M48.2,17.2c-0.3-0.3-1-0.2-1.2,0.3l-0.7,4.2h-1.5l1.1-6.3h1.5l0,0.5c0.3-0.3,0.6-0.5,1.4-0.5
				C48.8,15.4,48.3,16.4,48.2,17.2L48.2,17.2z"/>
			<path id="XMLID_21_" class="st3" d="M51.2,16.8c-0.1,0-0.1,0.1-0.2,0.1c-0.2,0.1-0.4,0.3-0.5,0.6c-0.1,0.2-0.2,0.5-0.3,0.9
				c-0.1,0.3-0.1,0.7-0.1,1c0,0.4,0.1,0.6,0.2,0.8c0.1,0.2,0.3,0.3,0.6,0.3c0.1,0,0.2,0,0.3-0.1c0,0,0.1,0,0.1-0.1
				c0.1-0.1,0.3-0.2,0.4-0.3l0.5-3.1c-0.1-0.1-0.2-0.1-0.3-0.1c-0.1,0-0.2-0.1-0.3-0.1C51.4,16.7,51.3,16.7,51.2,16.8L51.2,16.8z
				 M51.2,21.4c-0.1,0.1-0.2,0.2-0.4,0.3c-0.1,0.1-0.2,0.1-0.4,0.2c-0.1,0-0.3,0.1-0.4,0.1c-0.5,0-0.8-0.2-1.1-0.6
				c-0.3-0.4-0.4-1-0.4-1.7c0-0.6,0.1-1.2,0.2-1.7c0.1-0.5,0.3-1,0.6-1.4c0.2-0.4,0.5-0.7,0.9-0.9c0.3-0.2,0.6-0.3,1-0.3h0
				c0.3,0,0.5,0,0.7,0.1c0.2,0.1,0.4,0.2,0.6,0.3l0.3-2.2h1.5l-1.4,8.2h-1.5l0.1-0.6C51.4,21.2,51.3,21.3,51.2,21.4L51.2,21.4z"/>
			<path id="XMLID_20_" class="st4" d="M22.6,15.1l-0.3,1.4l-1.4,0c0,0-0.7,0.2-0.7,0.5c0,0.3,0.5,0.6,1.3,1
				c0.8,0.3,0.8,1.2,0.7,1.8c-0.1,0.6-0.2,1.9-2.4,1.9c-1.3,0-1.9-0.2-1.9-0.2l0.3-1.4c0,0,1.6,0.4,2,0.2c0.4-0.3,0.8-0.7,0.1-1
				c-0.7-0.3-1.8-0.8-1.8-1.9c0-1.1,0.5-1.8,1.2-2.1C20.5,14.9,21.7,14.9,22.6,15.1L22.6,15.1z"/>
			<polygon id="XMLID_19_" class="st4" points="11.9,21.5 10.3,21.5 11.2,16 9.2,21.4 8.1,21.4 7.9,15.8 6.9,21.5 5.4,21.5 
				6.8,13.2 8.6,13.2 9.3,17.9 11.4,13.2 13.3,13.2 11.9,21.5 			"/>
			<path id="XMLID_18_" class="st4" d="M24,21.6c-0.5,0-0.9-0.1-1.1-0.3c-0.2-0.2-0.3-0.6-0.3-1c0-0.1,0-0.2,0-0.3
				c0-0.1,0-0.2,0-0.4l1-5.3h1.5l-0.2,1h1.4l-0.2,1.3h-1.4l-0.4,2.3c0,0.1,0,0.3-0.1,0.5c0,0.2,0,0.3,0,0.4c0,0.2,0,0.4,0.1,0.5
				c0.1,0.1,0.2,0.1,0.4,0.1c0.1,0,0.2,0,0.3-0.1c0.1,0,0.2-0.1,0.3-0.1h0.1l-0.2,1.3c-0.2,0.1-0.3,0.1-0.5,0.1
				C24.5,21.6,24.3,21.6,24,21.6L24,21.6z"/>
			<path id="XMLID_17_" class="st4" d="M34.7,17c-0.3-0.3-1-0.2-1.2,0.3l-0.7,4.2h-1.5l1.1-6.3h1.5l0,0.5c0.3-0.3,0.6-0.5,1.4-0.5
				C35.3,15.2,34.7,16.1,34.7,17L34.7,17z"/>
			<path id="XMLID_16_" class="st4" d="M37.5,21.6c-0.8,0-1.5-0.3-1.9-0.8c-0.5-0.5-0.7-1.3-0.7-2.4c0-0.8,0.1-1.5,0.3-2.2
				c0.2-0.7,0.5-1.2,0.8-1.7c0.3-0.5,0.8-0.8,1.2-1.1c0.5-0.3,1-0.4,1.5-0.4c0.4,0,0.8,0.1,1.2,0.2c0.2,0.1,0.5,0.2,0.5,0.2l-0.3,2
				c-0.2-0.2-0.3-0.4-0.5-0.5c-0.3-0.2-0.6-0.3-0.9-0.3c-0.6,0-1.1,0.3-1.5,1c-0.4,0.7-0.6,1.5-0.6,2.5c0,0.7,0.1,1.2,0.3,1.4
				c0.2,0.3,0.5,0.4,1,0.4c0.4,0,0.7-0.1,1.1-0.3c0.2-0.1,0.3-0.2,0.5-0.3L39,21.3c0,0-0.2,0.1-0.3,0.1c-0.2,0.1-0.4,0.1-0.6,0.2
				C38.1,21.6,37.8,21.6,37.5,21.6L37.5,21.6z"/>
			<path id="XMLID_13_" class="st4" d="M15.5,21.2c-0.1,0.1-0.1,0.1-0.2,0.1c-0.2,0.1-0.3,0.1-0.4,0.2c-0.1,0-0.3,0.1-0.6,0.1
				c-0.4,0-0.7-0.2-0.9-0.4C13.2,20.9,13,20.5,13,20c0-0.5,0.1-0.9,0.3-1.3c0.2-0.3,0.4-0.6,0.8-0.8c0.3-0.2,0.7-0.3,1.1-0.4
				l0.3-0.1c0.4-0.1,0.7-0.1,1.1-0.1c0,0,0-0.1,0-0.1c0,0,0-0.1,0-0.2c0-0.3-0.1-0.4-0.3-0.6c-0.2-0.1-0.5-0.1-0.8-0.1h-0.1
				c-0.2,0-0.5,0.1-0.7,0.2c-0.3,0.1-0.5,0.2-0.7,0.3H14l0.2-1.5c0.2-0.1,0.4-0.1,0.8-0.2c0.2-0.1,0.3-0.1,0.5-0.1
				c0.2,0,0.4,0,0.6,0c0.7,0,1.3,0.1,1.6,0.4c0.3,0.3,0.5,0.7,0.5,1.2c0,0.1,0,0.2,0,0.3c0,0.1,0,0.2,0,0.3l-0.7,4.3h-1.5l0.1-0.7
				c-0.1,0.1-0.2,0.2-0.3,0.3C15.6,21.1,15.6,21.2,15.5,21.2L15.5,21.2z M15.5,18.7c-0.2,0-0.3,0.1-0.4,0.1
				c-0.2,0.1-0.3,0.2-0.4,0.3c-0.1,0.2-0.1,0.3-0.1,0.6c0,0.2,0.1,0.4,0.2,0.4c0.1,0.1,0.3,0.1,0.5,0.1c0.1,0,0.1,0,0.2-0.1
				c0.1,0,0.1,0,0.2-0.1c0.2-0.1,0.3-0.2,0.5-0.3l0.2-1.3c-0.3,0-0.5,0.1-0.7,0.1C15.6,18.6,15.6,18.6,15.5,18.7L15.5,18.7z"/>
			<path id="XMLID_10_" class="st4" d="M28.4,16.3c-0.2,0-0.4,0.1-0.5,0.3c-0.2,0.2-0.4,0.5-0.5,0.9h1h1c0-0.1,0-0.1,0-0.2
				c0,0,0-0.1,0-0.2c0-0.3-0.1-0.5-0.2-0.7c-0.1-0.1-0.3-0.2-0.6-0.2C28.5,16.3,28.4,16.3,28.4,16.3L28.4,16.3z M28.4,20.2h0.2
				c0.3,0,0.6-0.1,0.9-0.2c0.3-0.2,0.5-0.3,0.7-0.5h0.2l-0.3,1.6c-0.3,0.2-0.6,0.3-0.9,0.4c-0.3,0.1-0.6,0.1-0.9,0.1h-0.1
				c-0.8,0-1.4-0.2-1.8-0.7c-0.4-0.5-0.6-1.1-0.6-1.9c0-0.6,0.1-1.1,0.2-1.6c0.1-0.5,0.3-0.9,0.6-1.3c0.3-0.3,0.6-0.6,0.9-0.8
				c0.3-0.1,0.6-0.2,0.8-0.3c0.1,0,0.3,0,0.4,0c0.7,0,1.2,0.2,1.6,0.6c0.3,0.4,0.5,0.9,0.5,1.7c0,0.2,0,0.5,0,0.8
				c0,0.2-0.1,0.5-0.1,0.7h-2.3h-1.2v0.1v0.1c0,0.4,0.1,0.8,0.3,1C27.7,20,28,20.2,28.4,20.2L28.4,20.2z"/>
			<path id="XMLID_7_" class="st4" d="M42.3,21.2c-0.1,0.1-0.1,0.1-0.2,0.1c-0.1,0.1-0.3,0.1-0.4,0.2c-0.1,0-0.3,0.1-0.6,0.1
				c-0.4,0-0.7-0.2-0.9-0.4c-0.2-0.3-0.4-0.7-0.4-1.1c0-0.5,0.1-0.9,0.3-1.3c0.2-0.3,0.4-0.6,0.8-0.8c0.3-0.2,0.7-0.3,1.1-0.4
				c0.1,0,0.2,0,0.3-0.1c0.3-0.1,0.7-0.1,1.1-0.1c0,0,0-0.1,0-0.1c0,0,0-0.1,0-0.2c0-0.3-0.1-0.4-0.3-0.6c-0.2-0.1-0.5-0.1-0.8-0.1
				h-0.1c-0.2,0-0.5,0.1-0.7,0.2c-0.3,0.1-0.5,0.2-0.7,0.3h-0.1l0.2-1.5c0.2-0.1,0.4-0.1,0.8-0.2c0.2-0.1,0.3-0.1,0.5-0.1
				c0.2,0,0.4,0,0.6,0c0.7,0,1.3,0.1,1.6,0.4c0.3,0.3,0.5,0.7,0.5,1.2c0,0.1,0,0.2,0,0.3c0,0.1,0,0.2,0,0.3l-0.7,4.3h-1.5l0.1-0.7
				c-0.1,0.1-0.2,0.2-0.3,0.3L42.3,21.2L42.3,21.2z M42.3,18.7c-0.2,0-0.3,0.1-0.4,0.1c-0.2,0.1-0.3,0.2-0.4,0.3
				c-0.1,0.2-0.1,0.3-0.1,0.6c0,0.2,0.1,0.4,0.2,0.4c0.1,0.1,0.3,0.1,0.5,0.1c0.1,0,0.2,0,0.2-0.1c0.1,0,0.1,0,0.2-0.1
				c0.2-0.1,0.3-0.2,0.5-0.3l0.2-1.3c-0.3,0-0.5,0.1-0.7,0.1C42.4,18.6,42.3,18.6,42.3,18.7L42.3,18.7z"/>
			<path id="XMLID_6_" class="st4" d="M48.5,17c-0.3-0.3-1-0.2-1.2,0.3l-0.7,4.2h-1.5l1.1-6.3h1.5l0,0.5c0.3-0.3,0.6-0.5,1.4-0.5
				C49.1,15.2,48.6,16.1,48.5,17L48.5,17z"/>
			<path id="XMLID_3_" class="st5" d="M51.5,16.5c-0.1,0-0.1,0.1-0.2,0.1c-0.2,0.1-0.4,0.3-0.5,0.6c-0.1,0.2-0.2,0.5-0.3,0.8
				c-0.1,0.3-0.1,0.7-0.1,1c0,0.4,0.1,0.6,0.2,0.8c0.1,0.2,0.3,0.3,0.6,0.3c0.1,0,0.2,0,0.3-0.1c0,0,0.1,0,0.1-0.1
				c0.1-0.1,0.3-0.2,0.4-0.3l0.5-3.1c-0.1-0.1-0.2-0.1-0.3-0.1c-0.1,0-0.2-0.1-0.3-0.1C51.7,16.5,51.6,16.5,51.5,16.5L51.5,16.5z
				 M51.5,21.1c-0.1,0.1-0.2,0.2-0.4,0.3c-0.1,0.1-0.2,0.1-0.4,0.2c-0.1,0-0.3,0.1-0.4,0.1c-0.5,0-0.8-0.2-1.1-0.6
				c-0.3-0.4-0.4-1-0.4-1.7c0-0.6,0.1-1.2,0.2-1.7c0.1-0.5,0.3-1,0.6-1.4c0.2-0.4,0.5-0.7,0.9-0.9c0.3-0.2,0.6-0.3,1-0.4h0
				c0.3,0,0.5,0,0.7,0.1c0.2,0.1,0.4,0.2,0.6,0.3l0.3-2.2h1.5l-1.4,8.2h-1.5l0.1-0.6C51.7,20.9,51.6,21,51.5,21.1L51.5,21.1z"/>
		</g>
	</g>
	<g id="XMLID_626_">
		<g id="XMLID_47_">
			<rect id="XMLID_622_" x="65.5" class="st4" width="60" height="35"/>
			<path id="XMLID_623_" class="st6" d="M126,35.5H65v-36h61V35.5z M66,34.5h59v-34H66V34.5z"/>
		</g>
		<g>
			<polygon id="XMLID_46_" class="st6" points="87.9,25.2 90.5,9.9 94.7,9.9 92.1,25.2 			"/>
			<path id="XMLID_45_" class="st6" d="M107.2,10.2c-0.8-0.3-2.1-0.6-3.7-0.6c-4.1,0-7,2.1-7.1,5.1c0,2.2,2.1,3.4,3.7,4.2
				c1.6,0.8,2.2,1.2,2.2,1.9c0,1-1.3,1.5-2.5,1.5c-1.7,0-2.6-0.2-3.9-0.8l-0.5-0.2l-0.6,3.4c1,0.4,2.8,0.8,4.6,0.8
				c4.4,0,7.2-2.1,7.3-5.2c0-1.7-1.1-3.1-3.5-4.2c-1.5-0.7-2.4-1.2-2.3-1.9c0-0.6,0.8-1.3,2.4-1.3c1.4,0,2.4,0.3,3.1,0.6l0.4,0.2
				L107.2,10.2"/>
			<path id="XMLID_43_" class="st6" d="M117.9,9.9h-3.2c-1,0-1.7,0.3-2.2,1.3l-6.2,14h4.4c0,0,0.7-1.9,0.9-2.3c0.5,0,4.7,0,5.3,0
				c0.1,0.5,0.5,2.3,0.5,2.3h3.9L117.9,9.9 M112.7,19.7c0.3-0.9,1.7-4.3,1.7-4.3c0,0,0.3-0.9,0.6-1.5l0.3,1.3c0,0,0.8,3.7,1,4.4
				H112.7z"/>
			<path id="XMLID_50_" class="st6" d="M84.4,9.9l-4.1,10.4l-0.4-2.1c-0.8-2.4-3.1-5.1-5.8-6.4l3.7,13.4l4.4,0l6.6-15.3H84.4"/>
			<path id="XMLID_51_" class="st7" d="M76.5,9.9h-6.7l-0.1,0.3c5.2,1.3,8.7,4.3,10.1,8l-1.5-7C78.2,10.2,77.4,9.9,76.5,9.9"/>
		</g>
	</g>
	<g id="XMLID_1275_">
		<rect id="XMLID_610_" x="131.5" y="0.5" class="st4" width="59" height="34"/>
		<path id="XMLID_611_" class="st8" d="M191,35h-60V0h60V35z M132,34h58V1h-58V34z"/>
	</g>
	<g id="XMLID_42_">
		<g id="XMLID_53_">
			<circle id="XMLID_1161_" class="st9" cx="140.8" cy="23.7" r="5.2"/>
			<path id="XMLID_1145_" class="st10" d="M140.8,17.3c3.5,0,6.3,2.8,6.4,6.2c0,0.1-0.1,0.2-0.1,0.3c0,0.1,0.1,0.2,0.1,0.3
				c-0.1,1.6-0.8,3.1-1.9,4.2c-0.1,0.1-0.4,0.1-0.5,0.2c-0.1,0.1,0,0.2-0.1,0.2c0,0-0.1,0.1-0.1,0.2c-1.1,0.8-2.4,1.3-3.8,1.3
				c-1.4,0-2.7-0.4-3.8-1.2c-0.2-0.3-0.4-0.5-0.8-0.7c-1.2-1.2-1.9-2.8-1.9-4.6C134.4,20.1,137.3,17.3,140.8,17.3z"/>
			<path id="XMLID_944_" class="st10" d="M146.4,20.8c0.1,0.2,0.2,0.4,0.3,0.6l-0.2,0.2l-0.2-0.3L146.4,20.8L146.4,20.8z"/>
			<path id="XMLID_925_" class="st10" d="M141.3,18.2c-0.1,0-0.4-0.1-0.4-0.2c0.2-0.1,0.4-0.2,0.4-0.2l0.4,0.1l0.3,0.1l0.1,0.1
				l-0.3,0.3C141.6,18.3,141.5,18.3,141.3,18.2z"/>
			<path id="XMLID_915_" class="st10" d="M141.9,18.3c0,0-0.2-0.1-0.3-0.3c0.1-0.1,0.4-0.1,0.4-0.1l0.2,0.1L141.9,18.3z"/>
			<path id="XMLID_914_" class="st10" d="M142.7,18.3c0,0-0.2-0.4-0.8-0.3c0,0.3,0.2,0.5,0.2,0.5l0.5,0.2l0.2-0.2L142.7,18.3z"/>
			<path id="XMLID_910_" class="st10" d="M142.5,18.6c0,0-0.2-0.2-0.2-0.3c0.2-0.1,0.6-0.2,0.7,0.2c-0.1,0.1-0.1,0.2-0.1,0.2
				L142.5,18.6z"/>
			<path id="XMLID_909_" class="st10" d="M143.1,18.8c0,0-0.2-0.1-0.2-0.3c0.2,0,0.7,0,0.9,0.3c0.1,0.3-0.4,0.2-0.4,0.2L143.1,18.8z
				"/>
			<path id="XMLID_905_" class="st10" d="M143.1,19c0,0-0.1-0.1-0.1-0.2c0.2,0,0.4,0.1,0.5,0.1c0.1,0.1,0.1,0.3,0.1,0.3l-0.2,0
				L143.1,19z"/>
			<path id="XMLID_904_" class="st10" d="M142.7,18.9c0,0-0.2-0.2-0.3-0.3c0.2-0.1,0.5-0.1,0.7,0.3c0.1,0.2,0,0.2,0,0.2L142.7,18.9z
				"/>
			<path id="XMLID_900_" class="st10" d="M142.2,18.5c0,0-0.2-0.6-1.1-0.2c0.3,0.1,0.3,0.3,0.3,0.3l0.4,0.1l0.3,0.1l0.2-0.1
				L142.2,18.5z"/>
			<path id="XMLID_899_" class="st10" d="M142.6,18.7c0,0-0.3-0.4-0.7-0.3c0.2,0.3,0.4,0.3,0.4,0.3l0.4,0.1L142.6,18.7z"/>
			<polygon id="XMLID_895_" class="st9" points="145.6,28.1 146.1,27.3 146.2,27.5 146.2,27.8 146,28 			"/>
			<path id="XMLID_894_" class="st10" d="M147.3,24.2c-0.1,1.5-0.7,2.8-1.6,3.9l-0.6-0.2l-0.5-0.3l-0.3-0.1l-0.5,0l-0.2,0.1
				l-0.1-0.1l0.3-0.5l0.2-0.1l0.2-0.8l-0.2-0.9l0.1,0c0,0,0.5-0.2,0.5,0.3c0,0.2-0.1,0.6-0.1,0.8c0,0.1,0.2,0,0.2,0l1-0.6l1-0.6
				L147.3,24.2L147.3,24.2z"/>
			<circle id="XMLID_890_" class="st11" cx="140.8" cy="23.7" r="5.1"/>
			<path id="XMLID_889_" class="st12" d="M141.2,17.5c0,0-0.2-0.1-0.3-0.2"/>
			<path id="XMLID_885_" class="st12" d="M147,22.8c0,0.2,0.1,0.5,0.1,0.7l-0.2,0.2v-0.4C146.9,23.3,146.9,22.8,147,22.8
				C147,22.8,147,22.8,147,22.8z"/>
			<path id="XMLID_884_" class="st12" d="M146.6,21.4c0,0-0.1-0.1-0.1-0.2"/>
			<path id="XMLID_880_" class="st10" d="M146.7,21.4c0,0.1,0.1,0.2,0.1,0.3c0,0,0,0.1,0,0.1c-0.1-0.1-0.2-0.2-0.2-0.2s0-0.1,0-0.2
				C146.6,21.4,146.6,21.4,146.7,21.4z"/>
			<path id="XMLID_879_" class="st10" d="M146.7,22.1c0,0-0.3-0.1-0.4-0.7C146.5,21.5,146.8,21.6,146.7,22.1
				C146.8,22.1,146.7,22.1,146.7,22.1z"/>
			<path id="XMLID_875_" class="st10" d="M146.9,22c0.1,0.2,0.1,0.4,0.1,0.6l0,0.2l-0.3-0.4c0,0-0.1-0.4,0.1-0.6
				C146.8,21.9,146.8,22,146.9,22z"/>
			<path id="XMLID_874_" class="st10" d="M145.4,19.4c0.1,0.1,0.2,0.2,0.3,0.3l0,0l0.1,0.3l0,0.3l-0.2-0.2l-0.1-0.2
				C145.4,19.9,145.2,19.6,145.4,19.4L145.4,19.4z"/>
			<path id="XMLID_870_" class="st10" d="M141.2,17.4c0.2,0,0.5,0,0.7,0.1l0.1,0.1l-0.1,0.3l-0.6-0.2l-0.2-0.2
				C141.1,17.6,141.1,17.5,141.2,17.4z"/>
			<path id="XMLID_869_" class="st10" d="M141.7,17.5c0.3,0,0.6,0.1,0.8,0.2l0,0l-0.1,0.4l-0.6-0.2c0,0-0.3-0.3-0.3-0.4
				C141.6,17.5,141.6,17.5,141.7,17.5z"/>
			<path id="XMLID_865_" class="st10" d="M142.4,17.6c0.2,0.1,0.4,0.1,0.7,0.2l-0.1,0.1l-0.1,0.3l-0.4-0.2c0,0-0.2-0.2-0.3-0.3
				C142.2,17.7,142.3,17.6,142.4,17.6z"/>
			<path id="XMLID_864_" class="st10" d="M142.8,17.7c0.2,0.1,0.4,0.1,0.6,0.2l-0.2,0.1l0,0.3l-0.4-0.3c0,0-0.3-0.2-0.3-0.3
				C142.6,17.8,142.7,17.7,142.8,17.7z"/>
			<path id="XMLID_860_" class="st10" d="M143.2,17.9c0.2,0.1,0.5,0.2,0.7,0.3l-0.3,0.3l-0.4-0.3c0,0-0.2-0.3-0.2-0.4
				C143,17.9,143.1,17.9,143.2,17.9z"/>
			<path id="XMLID_859_" class="st10" d="M143.7,18.1c0.2,0.1,0.4,0.2,0.5,0.3c0,0.1,0,0.1,0,0.1l-0.3,0.2l-0.3-0.2
				c0,0-0.2-0.2-0.2-0.4C143.5,18.1,143.6,18.1,143.7,18.1z"/>
			<path id="XMLID_855_" class="st10" d="M144.3,18.5c0,0,0.1,0.1,0.1,0.1l0,0.1l-0.1,0.4l-0.5-0.3c0,0-0.2-0.2-0.2-0.4
				C143.9,18.3,144.1,18.4,144.3,18.5z"/>
			<path id="XMLID_854_" class="st10" d="M141.2,17.7c0.6,0,1.4,0.3,1.9,0.5c0.4,0.2,1,0.6,1.5,0.9l-0.1,0.2
				c-0.2-0.2-0.7-0.6-1.3-0.9C142.4,18.1,141.6,17.9,141.2,17.7L141.2,17.7z"/>
			<path id="XMLID_850_" class="st10" d="M144.5,18.6c0.1,0.1,0.2,0.1,0.3,0.2c0,0.1,0,0.2,0,0.2l-0.1,0.2l-0.2-0.1
				c0,0-0.3-0.2-0.4-0.5C144.3,18.6,144.4,18.6,144.5,18.6z"/>
			<path id="XMLID_849_" class="st10" d="M144.7,18.8c0.1,0.1,0.3,0.2,0.4,0.4l-0.1,0.2c0,0-0.4,0-0.5-0.5
				C144.6,18.8,144.7,18.8,144.7,18.8z"/>
			<path id="XMLID_843_" class="st10" d="M145.1,19.1c0.1,0.1,0.2,0.2,0.3,0.3c0,0,0,0,0,0l0.1,0.4l0,0.2l-0.2,0.2l-0.3-0.5
				c0,0-0.1-0.3-0.1-0.6C145,19.1,145.1,19.1,145.1,19.1z"/>
			<path id="XMLID_842_" class="st10" d="M145.6,19.7c0.2,0.2,0.3,0.4,0.4,0.6l0,0.2l-0.1,0.2l-0.1-0.1l-0.2-0.3
				C145.7,20.3,145.6,19.9,145.6,19.7z"/>
			<path id="XMLID_835_" class="st10" d="M146.3,21.3c0,0-0.5-0.4-0.3-1.1c0.2,0.1,0.4,0.5,0.4,0.8
				C146.3,21.2,146.3,21.3,146.3,21.3z"/>
			<path id="XMLID_832_" class="st10" d="M146.2,20.4c0.1,0.2,0.2,0.3,0.3,0.5C146.3,20.9,146.1,20.8,146.2,20.4z"/>
			<polygon id="XMLID_668_" class="st10" points="140.7,19.1 141.2,20.5 142.6,20.5 141.4,21.4 141.9,22.8 140.7,21.9 139.5,22.8 
				140,21.4 138.8,20.5 140.2,20.5 			"/>
			<line id="XMLID_662_" class="st12" x1="140.2" y1="20.5" x2="141.9" y2="22.8"/>
			<line id="XMLID_660_" class="st12" x1="139.5" y1="22.8" x2="141.2" y2="20.5"/>
			<line id="XMLID_655_" class="st12" x1="138.8" y1="20.5" x2="141.4" y2="21.4"/>
			<line id="XMLID_654_" class="st12" x1="142.6" y1="20.5" x2="140" y2="21.4"/>
			<line id="XMLID_647_" class="st12" x1="140.7" y1="21.9" x2="140.7" y2="19.1"/>
			<circle id="XMLID_643_" class="st12" cx="140.8" cy="23.7" r="6.3"/>
			<g id="XMLID_601_">
				<polygon id="XMLID_639_" class="st10" points="137.3,30.3 137.4,29.2 137.9,29 139,29.8 				"/>
				<path id="XMLID_633_" class="st10" d="M140,30.2l-2.8,0.8l0-0.5l0-0.3c0.5-0.1,1.2-0.4,1.2-0.4c0.3-0.1,1.6-0.4,1.6-0.4
					L140,30.2z"/>
				<line id="XMLID_632_" class="st12" x1="140.1" y1="30" x2="137.2" y2="30.8"/>
				<line id="XMLID_621_" class="st12" x1="140.1" y1="29.8" x2="137.2" y2="30.7"/>
				<line id="XMLID_618_" class="st12" x1="140.1" y1="29.6" x2="137.2" y2="30.5"/>
				<line id="XMLID_616_" class="st12" x1="138.5" y1="29.7" x2="137.4" y2="30.1"/>
				<line id="XMLID_615_" class="st12" x1="138.4" y1="29.6" x2="137.4" y2="29.9"/>
				<line id="XMLID_609_" class="st12" x1="138.2" y1="29.5" x2="137.5" y2="29.7"/>
				<path id="XMLID_608_" class="st12" d="M138.1,29.4c0,0-0.6,0.2-0.7,0.2"/>
				<path id="XMLID_607_" class="st12" d="M138.1,29.2c0,0-0.4,0.2-0.6,0.2"/>
				
					<ellipse id="XMLID_606_" transform="matrix(0.9888 0.1495 -0.1495 0.9888 6.1412 -20.1578)" class="st10" cx="137.2" cy="30.8" rx="0.1" ry="0.2"/>
				
					<ellipse id="XMLID_605_" transform="matrix(-0.9489 -0.3157 0.3157 -0.9489 257.8752 102.4041)" class="st10" cx="137.2" cy="30.3" rx="0.1" ry="0.2"/>
				
					<ellipse id="XMLID_604_" transform="matrix(-0.965 -0.2622 0.2622 -0.965 261.9932 94.9575)" class="st10" cx="137.3" cy="30" rx="0.1" ry="0.2"/>
				<circle id="XMLID_603_" class="st10" cx="137.4" cy="29.7" r="0.1"/>
				<path id="XMLID_602_" class="st10" d="M137.3,29.3c0-0.1,0.1-0.1,0.1-0.1c0,0,0.1,0.1,0,0.2c0,0.1-0.1,0.1-0.1,0.1
					C137.3,29.5,137.3,29.4,137.3,29.3z"/>
			</g>
			<g id="XMLID_585_">
				<polygon id="XMLID_600_" class="st10" points="144.2,30.2 144.1,29.2 143.6,29 142.6,29.8 				"/>
				<path id="XMLID_599_" class="st10" d="M141.4,30.2l2.8,0.8l0-0.5l0-0.3c-0.5-0.1-1.2-0.4-1.2-0.4c-0.3-0.1-1.6-0.4-1.6-0.4
					L141.4,30.2z"/>
				<line id="XMLID_598_" class="st12" x1="141.4" y1="30" x2="144.2" y2="30.8"/>
				<line id="XMLID_597_" class="st12" x1="141.4" y1="29.8" x2="144.2" y2="30.7"/>
				<line id="XMLID_596_" class="st12" x1="141.4" y1="29.6" x2="144.3" y2="30.5"/>
				<line id="XMLID_595_" class="st12" x1="142.9" y1="29.7" x2="144.1" y2="30.1"/>
				<line id="XMLID_594_" class="st12" x1="143.1" y1="29.6" x2="144.1" y2="29.9"/>
				<line id="XMLID_593_" class="st12" x1="143.2" y1="29.5" x2="144" y2="29.7"/>
				<path id="XMLID_592_" class="st12" d="M143.3,29.4c0,0,0.6,0.2,0.7,0.2"/>
				<path id="XMLID_591_" class="st12" d="M143.4,29.2c0,0,0.4,0.2,0.6,0.2"/>
				
					<ellipse id="XMLID_590_" transform="matrix(-0.9888 0.1494 -0.1494 -0.9888 291.5918 39.6454)" class="st10" cx="144.3" cy="30.8" rx="0.1" ry="0.2"/>
				
					<ellipse id="XMLID_589_" transform="matrix(0.9488 -0.316 0.316 0.9488 -2.1878 47.1359)" class="st10" cx="144.2" cy="30.3" rx="0.1" ry="0.2"/>
				
					<ellipse id="XMLID_588_" transform="matrix(0.965 -0.2623 0.2623 0.965 -2.8219 38.8624)" class="st10" cx="144.1" cy="30" rx="0.1" ry="0.2"/>
				<circle id="XMLID_587_" class="st10" cx="144.1" cy="29.7" r="0.1"/>
				<path id="XMLID_586_" class="st10" d="M144.2,29.4c0-0.1-0.1-0.1-0.1-0.1c0,0-0.1,0.1,0,0.2c0,0.1,0.1,0.1,0.1,0.1
					C144.2,29.5,144.2,29.4,144.2,29.4z"/>
			</g>
			<path id="XMLID_584_" class="st11" d="M139.1,28.1L139.1,28.1L139.1,28.1L139,28l-0.1-0.4l0-0.1l-0.3-0.1l-0.2,0.2
				c0,0-0.1,0-0.2,0l-0.1-0.1l-0.2-0.1l-0.4,0l-0.3,0.1l-0.4,0.2l-0.3,0.2l-0.5,0.3c0,0,0,0.1,0.1,0.2c0.3,0,0.5,0.2,0.7,0.4
				c0.1,0.2,0.3,0.5,0.5,0.5l0.3,0c0.2,0,0.2-0.1,0.2-0.2l0,0L139.1,28.1L139.1,28.1z"/>
			<path id="XMLID_583_" class="st10" d="M135.2,20.8c-0.1,0.2-0.2,0.4-0.3,0.6l0.1,0.2l0.2-0.3L135.2,20.8L135.2,20.8z"/>
			<path id="XMLID_582_" class="st10" d="M140.1,18.2c0.1,0,0.4-0.1,0.4-0.2c-0.2-0.1-0.3-0.2-0.3-0.2l-0.4,0.1l-0.3,0.1l-0.1,0.1
				l0.3,0.3C139.8,18.3,139.9,18.3,140.1,18.2z"/>
			<path id="XMLID_581_" class="st10" d="M139.6,18.3c0,0,0.2-0.1,0.3-0.3c-0.1-0.1-0.3-0.1-0.3-0.1l-0.2,0.1L139.6,18.3z"/>
			<path id="XMLID_580_" class="st10" d="M138.8,18.3c0,0,0.2-0.4,0.8-0.3c0,0.3-0.1,0.5-0.1,0.5l-0.5,0.2l-0.2-0.2L138.8,18.3z"/>
			<path id="XMLID_579_" class="st10" d="M138.9,18.6c0,0,0.2-0.2,0.2-0.3c-0.1-0.1-0.6-0.2-0.7,0.2c0,0.1,0.1,0.2,0.1,0.2
				L138.9,18.6z"/>
			<path id="XMLID_578_" class="st10" d="M138.4,18.8c0,0,0.2-0.1,0.2-0.3c-0.2,0-0.7,0-0.8,0.3c-0.1,0.3,0.3,0.2,0.3,0.2
				L138.4,18.8z"/>
			<path id="XMLID_577_" class="st10" d="M138.4,19c0,0,0.1-0.1,0.1-0.2c-0.2,0-0.4,0.1-0.5,0.1c-0.1,0.1-0.1,0.3-0.1,0.3l0.2,0
				L138.4,19z"/>
			<path id="XMLID_576_" class="st10" d="M138.8,18.9c0,0,0.2-0.2,0.2-0.3c-0.2-0.1-0.5-0.1-0.6,0.3c-0.1,0.2,0,0.2,0,0.2
				L138.8,18.9z"/>
			<path id="XMLID_575_" class="st10" d="M139.3,18.5c0,0,0.2-0.6,1-0.2c-0.2,0.1-0.3,0.3-0.3,0.3l-0.3,0.1l-0.3,0.1l-0.2-0.1
				L139.3,18.5z"/>
			<path id="XMLID_574_" class="st10" d="M138.9,18.7c0,0,0.2-0.4,0.7-0.3c-0.2,0.3-0.3,0.3-0.3,0.3l-0.4,0.1L138.9,18.7z"/>
			<polygon id="XMLID_573_" class="st9" points="136,28.1 135.5,27.3 135.3,27.5 135.4,27.8 135.6,28 			"/>
			<path id="XMLID_572_" class="st10" d="M134.3,24.2c0.1,1.5,0.7,2.8,1.6,3.9l0.6-0.2l0.5-0.3l0.3-0.1l0.5,0l0.2,0.1l0.1-0.1
				l-0.2-0.5l-0.2-0.1l-0.2-0.8l0.2-0.9l-0.1,0c0,0-0.5-0.2-0.5,0.3c0,0.2,0.1,0.6,0.1,0.8c0,0.1-0.2,0-0.2,0l-0.9-0.6l-1-0.6
				L134.3,24.2L134.3,24.2z"/>
			<path id="XMLID_571_" class="st12" d="M140.1,17.5c0,0,0.2-0.1,0.3-0.2"/>
			<path id="XMLID_570_" class="st12" d="M134.6,22.8c0,0.2-0.1,0.5-0.1,0.7l0.2,0.2v-0.4C134.7,23.3,134.7,22.8,134.6,22.8
				C134.6,22.8,134.6,22.8,134.6,22.8z"/>
			<path id="XMLID_569_" class="st12" d="M135,21.4c0,0,0.1-0.1,0.1-0.2"/>
			<path id="XMLID_568_" class="st10" d="M135,21.4c0,0.1-0.1,0.2-0.1,0.3c0,0,0,0.1,0,0.1c0.1-0.1,0.2-0.2,0.2-0.2s0-0.1,0-0.2
				C135,21.4,135,21.4,135,21.4z"/>
			<path id="XMLID_567_" class="st10" d="M134.9,22.1c0,0,0.3-0.1,0.4-0.7C135.1,21.5,134.8,21.6,134.9,22.1
				C134.9,22.1,134.9,22.1,134.9,22.1z"/>
			<path id="XMLID_566_" class="st10" d="M134.8,22c-0.1,0.2-0.1,0.4-0.1,0.6l0,0.2l0.3-0.4c0,0,0.1-0.4-0.1-0.6
				C134.8,21.9,134.8,22,134.8,22z"/>
			<path id="XMLID_565_" class="st10" d="M136.2,19.4c-0.1,0.1-0.2,0.2-0.3,0.3l0,0l-0.1,0.3l0,0.3l0.2-0.2l0.1-0.2
				C136.2,19.9,136.3,19.6,136.2,19.4L136.2,19.4z"/>
			<path id="XMLID_564_" class="st10" d="M140.2,17.4c-0.2,0-0.5,0-0.7,0.1l-0.1,0.1l0.1,0.3l0.6-0.2l0.2-0.2l0,0L140.2,17.4z"/>
			<path id="XMLID_563_" class="st10" d="M139.7,17.5c-0.3,0-0.5,0.1-0.8,0.2l0,0l0.1,0.4l0.6-0.2c0,0,0.3-0.3,0.3-0.4
				C139.8,17.5,139.8,17.5,139.7,17.5z"/>
			<path id="XMLID_562_" class="st10" d="M139.1,17.6c-0.2,0.1-0.4,0.1-0.6,0.2l0.1,0.1l0.1,0.3L139,18c0,0,0.2-0.2,0.3-0.3
				C139.3,17.7,139.2,17.6,139.1,17.6z"/>
			<path id="XMLID_561_" class="st10" d="M138.6,17.7c-0.2,0.1-0.4,0.1-0.6,0.2l0.2,0.1l0,0.3l0.4-0.3c0,0,0.3-0.2,0.3-0.3
				C138.8,17.8,138.8,17.7,138.6,17.7z"/>
			<path id="XMLID_560_" class="st10" d="M138.2,17.9c-0.2,0.1-0.5,0.2-0.7,0.3l0.3,0.3l0.4-0.3c0,0,0.2-0.3,0.2-0.4
				C138.4,17.9,138.3,17.9,138.2,17.9z"/>
			<path id="XMLID_559_" class="st10" d="M137.8,18.1c-0.2,0.1-0.3,0.2-0.5,0.3c0,0.1,0,0.1,0,0.1l0.3,0.2l0.3-0.2
				c0,0,0.2-0.2,0.2-0.4C138,18.1,137.9,18.1,137.8,18.1z"/>
			<path id="XMLID_558_" class="st10" d="M137.2,18.5c0,0-0.1,0.1-0.1,0.1l0,0.1l0.1,0.4l0.4-0.3c0,0,0.2-0.2,0.2-0.4
				C137.6,18.3,137.4,18.4,137.2,18.5z"/>
			<path id="XMLID_557_" class="st10" d="M140.4,17.7c-0.6,0-1.5,0.4-1.9,0.5c-0.4,0.2-1,0.6-1.4,0.9l0.1,0.2
				c0.2-0.2,0.6-0.6,1.3-0.9C139,18.1,139.9,17.8,140.4,17.7L140.4,17.7z"/>
			<path id="XMLID_556_" class="st10" d="M137,18.6c-0.1,0.1-0.2,0.1-0.3,0.2c0,0.1,0,0.2,0,0.2l0.1,0.2l0.2-0.1
				c0,0,0.3-0.2,0.4-0.5C137.3,18.6,137.1,18.6,137,18.6z"/>
			<path id="XMLID_555_" class="st10" d="M136.8,18.8c-0.1,0.1-0.3,0.2-0.4,0.4l0,0.2c0,0,0.4,0,0.5-0.5
				C136.9,18.8,136.9,18.8,136.8,18.8z"/>
			<path id="XMLID_554_" class="st10" d="M136.4,19.1c-0.1,0.1-0.2,0.2-0.3,0.3c0,0,0,0,0,0l-0.1,0.4l0,0.2l0.1,0.2l0.3-0.5
				c0,0,0.1-0.3,0.1-0.6C136.5,19.1,136.5,19.1,136.4,19.1z"/>
			<path id="XMLID_553_" class="st10" d="M135.9,19.7c-0.2,0.2-0.3,0.4-0.4,0.6l0,0.2l0.1,0.2l0.1-0.1l0.2-0.3
				C135.9,20.3,136,19.9,135.9,19.7z"/>
			<path id="XMLID_552_" class="st10" d="M135.3,21.3c0,0,0.5-0.4,0.3-1.1c-0.1,0.1-0.4,0.5-0.4,0.8
				C135.3,21.2,135.3,21.3,135.3,21.3z"/>
			<path id="XMLID_551_" class="st10" d="M135.4,20.4c-0.1,0.2-0.2,0.3-0.3,0.5C135.3,20.9,135.5,20.8,135.4,20.4z"/>
			<path id="XMLID_550_" class="st10" d="M138.3,24c0.2,0.1,0.4,0.3,0.4,0.3C138.6,24.4,138.3,24.1,138.3,24
				C138.3,24,138.3,24,138.3,24z"/>
			<path id="XMLID_549_" class="st10" d="M138.2,24.1c0,0,0,0.3,0.4,0.3C138.6,24.3,138.4,24.1,138.2,24.1
				C138.2,24.1,138.2,24.1,138.2,24.1z"/>
			<path id="XMLID_548_" class="st12" d="M138,24.2c0,0-0.2-0.1-0.3-0.1"/>
			<path id="XMLID_547_" class="st10" d="M136.7,25.1c0,0,0-0.3,0.1-0.2c0.1,0,0.1,0.2,0.1,0.2c0,0.1,0.3,1.1,0.3,1.1l-0.5-0.3
				L136.7,25.1z"/>
			<path id="XMLID_546_" class="st10" d="M137.8,26.8c0,0-0.4-0.4-0.2-1.6c0.1-0.5,0.5-1.2,1.3-1.4c-0.4,0-1.1,0.2-1.5,1.3
				c-0.1,0.3-0.5,1.1-0.5,1.1l-0.1,0.3l0,0.1l0.5,0.9l0.7,0.1l-0.2-0.5V26.8z"/>
			<path id="XMLID_545_" class="st12" d="M135.8,26c0,0,0-0.2-0.1-0.3c-0.1-0.1-0.1-0.2-0.1-0.3c0,0,0,0-0.1,0
				c-0.1-0.1-0.2-0.1-0.3-0.2c0,0,0,0.1,0,0.2c0,0.1,0.2,0.4,0.2,0.4L135.8,26z"/>
			<path id="XMLID_544_" class="st10" d="M137,25.7c0,0,0.1-0.4,0-0.8c-0.1,0.1-0.1,0.4-0.1,0.6C136.8,25.7,137,25.7,137,25.7z"/>
			<path id="XMLID_543_" class="st10" d="M136.7,20.9c0,0,0.5-0.5,0.6-1C137.1,20.1,136.7,20.9,136.7,20.9z"/>
			<path id="XMLID_542_" class="st10" d="M136.9,20.2c0,0-0.1-0.5,0.5-0.7c0,0.2-0.1,0.3-0.1,0.3l-0.2,0.3L136.9,20.2z"/>
			<path id="XMLID_541_" class="st10" d="M136.4,24.9c0,0-0.2-1,0-1.6c0.2-0.6,0.5-1.2,0.5-1.2s-0.3,0.2-0.8,0.9
				c0-0.5,0.2-1.2,0.4-1.5c0.2-0.4,0.4-1,1.1-1.9c-0.5,0.1-1.2,1-1.2,1l-0.5,0.7l-0.5,2.1l0,1.1L136.4,24.9z"/>
			<path id="XMLID_540_" class="st10" d="M136.6,26.3c0,0,0-0.4-0.3-0.6c-0.3-0.2-0.4,0-0.4,0l0,0.5l0.3,0.3l0.2-0.1L136.6,26.3z"/>
			<path id="XMLID_539_" class="st10" d="M136.9,26.9l0-0.5l-0.2-0.2c-0.2,0-0.2,0-0.2,0.2c0,0.1,0.2,0.4,0.2,0.4L136.9,26.9z"/>
			<path id="XMLID_538_" class="st10" d="M136.2,26.6c0,0-0.1-0.5-0.5-0.7c0,0.1,0,0.2,0,0.2l0.2,0.3l0.1,0.1
				C135.9,26.5,136.2,26.6,136.2,26.6z"/>
			<path id="XMLID_537_" class="st12" d="M135.9,26.5c0.1,0.2,0.4,0.7,0.4,0.7C136.5,26.8,136.3,26.4,135.9,26.5z"/>
			<path id="XMLID_536_" class="st10" d="M135.4,26.1c0,0-0.2-0.1-0.2-0.6c0.3,0.3,0.4,0.6,0.4,0.6l0.2,0.4l-0.3-0.1L135.4,26.1z"/>
			<path id="XMLID_535_" class="st10" d="M135.3,25.4c0,0,0-0.2-0.3-0.3c-0.1,0.1,0,0.3,0.1,0.5c0.1,0.2,0.2,0.2,0.2,0.2l0.1-0.1
				L135.3,25.4z"/>
			<path id="XMLID_534_" class="st10" d="M136.7,27.6c0,0-1.2-1.5-1.4-2.3c-0.2-0.8-0.1-0.2-0.1-0.2c0,0.4,0.3,1,0.5,1.3
				C136,26.8,136.6,27.7,136.7,27.6L136.7,27.6z"/>
			<path id="XMLID_533_" class="st11" d="M136.8,26.4c0,0-0.5-0.5-1.2-1c-0.7-0.4-1.1-0.8-1.2-1c-0.1-0.2-0.1-0.3,0-0.4
				c0.1-0.2,0.1-0.4,0-0.5c0-0.1-0.1-0.6-0.1-0.6l0-0.4l0.1-0.1l0.1-0.1c-0.2,0.4-0.2,0.9,0.1,1.3l1.3,0.8l0.6,0.4l0.4,0.6l0.1,0.4
				l0,0.3L136.8,26.4z"/>
			<path id="XMLID_532_" class="st12" d="M136.2,23.8c0,0,0-1,0.6-1.5"/>
			<path id="XMLID_531_" class="st10" d="M135.5,21.6c0,0-0.3,0.1-0.4,0.4c-0.1,0.2,0,0.4,0,0.4l0.3-0.2l0.1-0.4L135.5,21.6z"/>
			<path id="XMLID_530_" class="st10" d="M135.6,22.4c0,0,0-0.4-0.1-0.6c-0.2,0.1-0.4,0.4-0.2,0.9C135.5,22.5,135.6,22.4,135.6,22.4
				z"/>
			<path id="XMLID_529_" class="st10" d="M135.6,21.5c0,0,0-0.5,0-0.6c-0.2,0.2-0.4,0.4-0.4,0.7c-0.1,0.2-0.1,0.5-0.1,0.5l0.3-0.1
				L135.6,21.5z"/>
			<path id="XMLID_528_" class="st10" d="M135.5,22c0,0-0.1-0.5,0.2-0.8c0.1,0.3,0,0.7,0,0.7l-0.1,0.2l-0.1,0.1L135.5,22z"/>
			<path id="XMLID_527_" class="st10" d="M136,22.1l-0.1-0.4c-0.2,0.1-0.3,0.3-0.3,0.5c0,0.1,0.1,0.4,0.1,0.4l0.2,0L136,22.1z"/>
			<path id="XMLID_526_" class="st10" d="M135.5,23c0,0-0.4-0.4,0.2-0.7c0.1,0.3,0.1,0.7,0.1,0.7l-0.1,0.2l-0.1,0L135.5,23z"/>
			<path id="XMLID_525_" class="st12" d="M135.5,22.9c0,0,0-0.3,0.1-0.4"/>
			<path id="XMLID_524_" class="st10" d="M135.9,20.3c0,0,0-0.3,0.3-0.6c0,0.2,0,0.4,0,0.4L135.9,20.3z"/>
			<path id="XMLID_523_" class="st10" d="M136.4,20.2c0,0,0-0.3-0.1-0.4c-0.2,0.2-0.4,0.4-0.4,0.6c-0.1,0.1,0,0.3,0,0.3l0,0.2
				l0.3-0.3L136.4,20.2z"/>
			<path id="XMLID_522_" class="st10" d="M135.8,21.4c0,0-0.3-0.4,0.3-0.8c0.2,0.2,0.1,0.5,0.1,0.5L135.8,21.4z"/>
			<path id="XMLID_521_" class="st10" d="M135.8,21.8c0,0-0.2-0.3,0.2-0.7C136,21.3,135.9,21.8,135.8,21.8L135.8,21.8z"/>
			<path id="XMLID_520_" class="st10" d="M135.9,22c0,0-0.2-0.7,0.3-1c0.1,0.2,0.1,0.4,0.1,0.4L135.9,22z"/>
			<path id="XMLID_519_" class="st10" d="M137,19.6c0,0,0.2-0.1,0.1-0.3c-0.1,0-0.2,0-0.3,0.3C136.8,19.8,137,19.6,137,19.6z"/>
			<path id="XMLID_518_" class="st10" d="M137.9,19.1c0,0,0.1-0.3,0.1-0.3c-0.2,0-0.8,0-0.8,0.4C137.5,19.3,137.9,19.1,137.9,19.1z"
				/>
			<path id="XMLID_517_" class="st10" d="M138,19.3c0,0,0-0.2,0-0.3c-0.2,0-0.5,0.1-0.6,0.2c-0.1,0.1-0.1,0.4-0.1,0.4l0.4-0.1
				L138,19.3z"/>
			<path id="XMLID_516_" class="st10" d="M137.4,19.5c0,0,0.1-0.3,0-0.4c-0.1,0-0.5,0.1-0.6,0.4c-0.1,0.4,0.2,0.2,0.2,0.2
				L137.4,19.5z"/>
			<path id="XMLID_515_" class="st10" d="M136.9,20c0,0,0.1-0.1,0.1-0.5c-0.2,0-0.4,0.1-0.4,0.1l-0.1,0.3l0,0.2l0.1,0.2L136.9,20z"
				/>
			<path id="XMLID_514_" class="st10" d="M136.1,20.8c0,0-0.2-0.3,0.4-0.9c0,0.4-0.2,0.8-0.3,0.8C136.2,20.9,136.1,20.8,136.1,20.8z
				"/>
			<path id="XMLID_513_" class="st10" d="M136.2,21.3c0,0-0.2-0.7,0.2-0.8c0,0.2,0,0.4,0,0.4L136.2,21.3L136.2,21.3z"/>
			<path id="XMLID_512_" class="st10" d="M135.8,24.4c0,0-0.1-1,0-1.5c0.1-0.6,0.3-1.8,1.7-3.1c-0.1,0-0.1,0.1-0.2,0.1
				c-0.5,0.3-0.9,1-1.1,1.5c-0.3,0.6-0.5,1.3-0.6,2.1l0,0.4l0,0.4L135.8,24.4z"/>
			<path id="XMLID_511_" class="st10" d="M135.4,24.1c0,0,0.1-0.6,0-0.7c-0.1-0.1-0.1-0.2-0.1-0.2c-0.1,0.1-0.1,0.1-0.1,0.2
				c0,0.1,0,0.5,0,0.5S135.4,24.1,135.4,24.1z"/>
			<path id="XMLID_510_" class="st10" d="M135.5,24.1c0,0,0-0.4,0-0.5c-0.1,0.1-0.1,0.4-0.1,0.4S135.5,24.1,135.5,24.1z"/>
			<path id="XMLID_509_" class="st12" d="M135.3,23.5c0,0-0.1-0.3-0.2-0.3c-0.1-0.1-0.1-0.2-0.1-0.2c-0.1,0.2-0.2,0.2-0.2,0.4
				c0,0.2,0,0.5,0,0.5l0.4,0.2L135.3,23.5z"/>
			<path id="XMLID_508_" class="st10" d="M136.1,23.7c0,0,0.1-0.5,0-0.8c-0.2,0.1-0.3,0.2-0.3,0.2c0,0-0.1,0.3-0.1,0.5
				c0,0.2,0.1,0.3,0.1,0.3L136.1,23.7z"/>
			<path id="XMLID_507_" class="st10" d="M136.1,24.4c0,0,0-0.2,0-0.4c0-0.2,0-0.3,0-0.3c-0.2,0.1-0.5,0.3-0.4,0.7
				c0.2,0.1,0.3,0.3,0.3,0.3S136.1,24.4,136.1,24.4z"/>
			<path id="XMLID_506_" class="st12" d="M135.9,24.4c0,0,0-0.2,0.1-0.2"/>
			<path id="XMLID_505_" class="st10" d="M136.2,24.6c0,0,0-0.1,0-0.3c-0.1,0-0.2,0.2-0.2,0.2L136.2,24.6z"/>
			<path id="XMLID_504_" class="st12" d="M134.7,23.6c0,0-0.1-0.3,0-0.4"/>
			<path id="XMLID_503_" class="st12" d="M134.7,22.6c0,0,0.1-0.3,0.1-0.5"/>
			<path id="XMLID_502_" class="st10" d="M134.9,22.2c0,0,0.2-0.3,0.4-0.3c-0.1,0.3-0.1,0.5-0.1,0.5l-0.2,0.1L134.9,22.2z"/>
			<path id="XMLID_501_" class="st10" d="M135,23.1c0,0,0-0.6,0-0.7c-0.2,0.1-0.4,0.3-0.4,0.5c0,0.2,0.1,0.5,0.1,0.5l0.2,0L135,23.1
				z"/>
			<path id="XMLID_500_" class="st12" d="M134.8,23.2c0,0,0.1-0.1,0.1-0.4"/>
			<path id="XMLID_499_" class="st10" d="M134.9,23.8c0,0,0.1-0.4-0.1-0.6c-0.1,0.2-0.2,0.4-0.1,0.5
				C134.8,23.8,134.9,23.8,134.9,23.8z"/>
			<path id="XMLID_498_" class="st10" d="M135.3,22.7l0-0.5c0,0-0.2,0-0.2,0.2c0,0.2-0.1,0.6-0.1,0.6v0.3l0.2-0.2L135.3,22.7z"/>
			<path id="XMLID_497_" class="st10" d="M135.3,22.8c0,0,0-0.1,0-0.3c-0.1,0.1-0.2,0.3-0.1,0.5C135.3,23.2,135.3,22.8,135.3,22.8z"
				/>
			<path id="XMLID_496_" class="st10" d="M135.1,24c0,0,0-1.6,0.1-2.1c-0.2,0.1-0.2,0.8-0.2,1c0,0.4-0.1,0.9,0,1
				C135,24,135.1,24,135.1,24z"/>
			<path id="XMLID_495_" class="st10" d="M136.6,24.6c0,0,0.2-0.1,0-0.6C136.5,24.2,136.5,24.3,136.6,24.6
				C136.6,24.6,136.6,24.6,136.6,24.6z"/>
			<path id="XMLID_494_" class="st10" d="M136.6,25c0,0,0.1-0.2,0-0.6c-0.2,0.2-0.2,0.3-0.2,0.5C136.6,25,136.6,25,136.6,25z"/>
			<path id="XMLID_493_" class="st10" d="M137,26c0,0,0-0.6-0.7-1.2c-0.3-0.2-0.8-0.6-1-0.6c-0.3-0.1-1.2-0.7-1.2-1.2
				c0-0.4,0.2-0.7,0.4-0.7l-0.1,0.3c-0.2,0.1-0.2,0.6,0,0.8c0.3,0.3,0.6,0.5,1.4,1c0.5,0.4,0.9,0.7,1,0.9c0,0.1,0.1,0.4,0.2,0.6
				C137,25.9,137,26,137,26z"/>
			<path id="XMLID_492_" class="st10" d="M137.3,25.8c0,0,0.1,0.2,0.5,0c-0.2-0.1-0.4-0.2-0.4-0.1C137.3,25.8,137.3,25.8,137.3,25.8
				z"/>
			<path id="XMLID_491_" class="st10" d="M137.4,25.7c0,0,0.2-0.1,0.2-0.7c0-0.1,0-0.1,0-0.1c-0.2,0.1-0.5,0.3-0.3,0.7
				C137.3,25.8,137.4,25.7,137.4,25.7z"/>
			<path id="XMLID_490_" class="st10" d="M137.3,25c0,0,0.3,0.3,0.6,0c-0.1-0.2-0.3-0.2-0.5-0.1C137.4,25,137.3,25,137.3,25z"/>
			<path id="XMLID_489_" class="st12" d="M137.4,25.7c0,0-0.1-0.2,0-0.4"/>
			<path id="XMLID_488_" class="st12" d="M137.7,26.8c0,0-0.3-0.3-0.3-0.7"/>
			<path id="XMLID_487_" class="st10" d="M137.1,26.6c0,0,0.1-0.4-0.3-0.6c0,0.2,0,0.4,0.1,0.5C137.1,26.6,137.1,26.6,137.1,26.6z"
				/>
			<path id="XMLID_486_" class="st10" d="M137.3,24.2c0,0,0.1,0.1,0.5-0.3c-0.1-0.1-0.4,0-0.5,0.1C137.2,24.2,137.3,24.2,137.3,24.2
				z"/>
			<path id="XMLID_485_" class="st12" d="M137.4,24.1c0,0,0.1-0.1,0.3-0.1"/>
			<path id="XMLID_484_" class="st10" d="M137.4,24c0,0,0-0.2,0.1-0.4c-0.2,0.1-0.3,0.3-0.3,0.4c0,0.2,0.1,0.1,0.1,0.1L137.4,24z"/>
			<path id="XMLID_483_" class="st10" d="M137.5,24.5c0,0-0.2,0.1-0.4-0.2c-0.1-0.1-0.1-0.3-0.1-0.3s0-0.1,0.1,0
				c0.1,0,0.2,0.1,0.2,0.2C137.3,24.4,137.5,24.5,137.5,24.5z"/>
			<line id="XMLID_482_" class="st12" x1="137.3" y1="24.5" x2="137.1" y2="24.1"/>
			<path id="XMLID_481_" class="st10" d="M137.3,24.3c0,0,0-0.3-0.2-0.2C137.1,24.2,137.2,24.3,137.3,24.3
				C137.3,24.3,137.3,24.3,137.3,24.3z"/>
			<path id="XMLID_480_" class="st10" d="M136.9,25c0,0,0.2-0.1,0.2-0.3c0-0.2-0.1-0.3-0.2-0.2C136.9,24.6,136.9,24.8,136.9,25
				C136.9,25,136.9,25,136.9,25z"/>
			<path id="XMLID_479_" class="st12" d="M137,24.9c0,0,0-0.2,0.1-0.3"/>
			<path id="XMLID_478_" class="st12" d="M137,24.5c0,0-0.1-0.1-0.2,0"/>
			<path id="XMLID_477_" class="st12" d="M136.6,24.7c0,0-0.1,0.1-0.1,0.2"/>
			<path id="XMLID_476_" class="st12" d="M137.3,26.5c0,0,0-0.4-0.3-0.5c0,0-0.1,0-0.1,0l0,0.1l0.1,0.2L137.3,26.5L137.3,26.5z"/>
			<path id="XMLID_475_" class="st12" d="M137.4,26.8c0,0,0-0.3-0.4-0.3C137.1,26.7,137.3,26.8,137.4,26.8
				C137.4,26.9,137.4,26.8,137.4,26.8z"/>
			<path id="XMLID_474_" class="st10" d="M135.9,26.1c0,0,0-0.3,0-0.4c-0.1-0.1-0.2-0.1-0.3-0.2c0,0.2,0,0.4,0.1,0.5
				C135.9,26.1,135.9,26.1,135.9,26.1z"/>
			<path id="XMLID_473_" class="st12" d="M137.4,26.2c0,0-0.1,0.1-0.2,0.1"/>
			<path id="XMLID_472_" class="st12" d="M137.1,26.2c0,0,0-0.1,0-0.3C137,26.1,137.1,26.2,137.1,26.2z"/>
			<path id="XMLID_471_" class="st12" d="M137.1,26c0,0,0.1-0.3,0.1-0.4c0-0.1,0-0.5,0.1-0.6"/>
			<path id="XMLID_470_" class="st12" d="M137.5,26.6c0,0-0.2,0-0.3,0"/>
			<path id="XMLID_469_" class="st12" d="M137.4,26.4c0,0-0.1,0.1-0.1,0.1"/>
			<path id="XMLID_468_" class="st12" d="M137.6,27.2c0,0-0.2-0.1-0.2-0.3c0.1,0,0.2,0.1,0.2,0.1L137.6,27.2z"/>
			<path id="XMLID_467_" class="st10" d="M137.4,27.4c0,0,0-0.4-0.2-0.5c-0.1,0.1,0,0.4,0.1,0.5C137.3,27.4,137.4,27.4,137.4,27.4z"
				/>
			<path id="XMLID_466_" class="st12" d="M137.2,27.4c0,0-0.1-0.1-0.1-0.2"/>
			<path id="XMLID_465_" class="st12" d="M137.4,27c0,0,0-0.2-0.3-0.3c0,0.2,0,0.2,0.1,0.3C137.3,27.1,137.4,27,137.4,27z"/>
			<path id="XMLID_464_" class="st10" d="M137.1,27.1c0,0,0.2-0.4-0.2-0.6C136.8,26.7,136.8,26.9,137.1,27.1
				C137,27.1,137.1,27.1,137.1,27.1z"/>
			<path id="XMLID_463_" class="st12" d="M136.9,26.8c0,0,0,0.2,0.1,0.3"/>
			<path id="XMLID_462_" class="st10" d="M137.2,27.4c0,0,0-0.4-0.5-0.4c0,0.3,0.1,0.5,0.2,0.5C137,27.5,137.2,27.4,137.2,27.4z"/>
			<path id="XMLID_461_" class="st12" d="M137.1,27.4c0,0-0.2-0.2-0.3-0.3"/>
			<path id="XMLID_460_" class="st12" d="M136.5,27c0,0-0.1-0.1-0.1-0.2"/>
			<path id="XMLID_459_" class="st10" d="M136.6,26.7c0,0-0.1-0.5-0.4-0.6c0,0.1-0.1,0.3-0.1,0.4c0,0.1,0.1,0.2,0.1,0.2l0.2,0
				L136.6,26.7z"/>
			<path id="XMLID_458_" class="st10" d="M136.9,27c0,0-0.3-0.5-0.6-0.4c0.1,0.3,0.2,0.4,0.4,0.4C136.9,27.1,136.9,27,136.9,27z"/>
			<path id="XMLID_457_" class="st10" d="M136.6,25.8c0,0,0.1-0.5-0.2-0.6c0,0.1,0,0.3,0,0.3C136.4,25.7,136.4,25.8,136.6,25.8z"/>
			<path id="XMLID_456_" class="st10" d="M136.9,26.1c0,0-0.1-0.4-0.4-0.5C136.5,25.9,136.7,26.1,136.9,26.1
				C136.9,26.2,136.9,26.2,136.9,26.1L136.9,26.1z"/>
			<path id="XMLID_455_" class="st10" d="M136.1,27.4c0,0,0-0.6-0.6-0.8C135.5,26.7,135.7,27.4,136.1,27.4z"/>
			<path id="XMLID_454_" class="st12" d="M136.1,27.4c0,0-0.2-0.2-0.2-0.3c0-0.1-0.1-0.2-0.1-0.2"/>
			<path id="XMLID_453_" class="st10" d="M135.8,26.7c0,0,0.1-0.5-0.5-0.7c0,0.3,0.1,0.6,0.3,0.7C135.8,26.8,135.8,26.7,135.8,26.7z
				"/>
			<path id="XMLID_452_" class="st12" d="M135.5,26.5c0,0-0.1-0.2-0.1-0.3"/>
			<polygon id="XMLID_451_" class="st12" points="136.5,27.8 136,27.3 136,27.4 136.4,27.8 			"/>
			<path id="XMLID_450_" class="st12" d="M135.4,26.1c0,0,0-0.1-0.1-0.2c-0.1-0.1-0.1-0.2-0.1-0.2"/>
			<path id="XMLID_449_" class="st10" d="M135.1,25.2c0,0,0-0.3-0.4-0.4c0,0.2,0,0.3,0.1,0.4c0.1,0.1,0.2,0.3,0.2,0.3l0.2,0.2l0.1,0
				L135.1,25.2z"/>
			<path id="XMLID_448_" class="st12" d="M135.9,23.7c0,0,0-0.3,0.1-0.5"/>
			<path id="XMLID_447_" class="st10" d="M135.8,23.1c0,0,0.4-0.2,0.4-0.8c-0.1,0-0.3,0.1-0.3,0.3C135.8,22.9,135.8,23.1,135.8,23.1
				z"/>
			<path id="XMLID_446_" class="st12" d="M135.9,23c0,0,0.1-0.3,0.2-0.4"/>
			<path id="XMLID_445_" class="st10" d="M136.2,22.4c0,0,0.4,0,0.5-0.6c-0.2,0.1-0.5,0.3-0.5,0.4C136.2,22.3,136.2,22.4,136.2,22.4
				z"/>
			<path id="XMLID_444_" class="st10" d="M136.2,22.3c0,0,0.1-0.2,0-0.4c-0.1,0.1-0.3,0.3-0.2,0.7c0.2-0.2,0.2-0.2,0.2-0.2
				L136.2,22.3z"/>
			<path id="XMLID_443_" class="st12" d="M136.3,22.2c0,0,0.1-0.2,0.2-0.2"/>
			<path id="XMLID_442_" class="st10" d="M135.3,23.4c0,0-0.5-0.7,0.1-0.9c0,0.2,0.1,0.4,0.1,0.4L135.3,23.4z"/>
			<path id="XMLID_441_" class="st10" d="M135.4,23.7c0,0,0.3-0.3,0.1-0.8c-0.1,0-0.3,0.1-0.3,0.6C135.4,23.6,135.4,23.7,135.4,23.7
				z"/>
			<line id="XMLID_440_" class="st12" x1="135.4" y1="22.8" x2="135.4" y2="22.6"/>
			<path id="XMLID_439_" class="st12" d="M135.4,22.3c0,0,0-0.3,0.1-0.5"/>
			<path id="XMLID_438_" class="st12" d="M134.9,22.7c0,0,0.1-0.2,0.1-0.3"/>
			<path id="XMLID_437_" class="st12" d="M135.9,21.1c0,0,0-0.3,0.2-0.4"/>
			<path id="XMLID_436_" class="st10" d="M135.6,21.1c0,0-0.1-0.3,0.4-0.9c0.1,0.3,0,0.7,0,0.7L135.6,21.1z"/>
			<path id="XMLID_435_" class="st10" d="M135.7,21.4c0,0-0.2-0.4,0.3-0.6c0,0.2,0,0.4-0.1,0.6C135.8,21.4,135.7,21.4,135.7,21.4z"
				/>
			<path id="XMLID_434_" class="st12" d="M135.2,21.8c0,0,0.2-0.4,0.3-0.5"/>
			<line id="XMLID_433_" class="st12" x1="135" y1="21.9" x2="135.1" y2="21.6"/>
			<path id="XMLID_432_" class="st12" d="M135.7,20.9c0,0-0.1-0.2,0.2-0.4"/>
			<path id="XMLID_431_" class="st12" d="M135.6,21.7c0,0,0-0.3,0.1-0.5"/>
			<path id="XMLID_430_" class="st10" d="M136.5,20.5c0,0-0.1-0.6,0.5-0.6C137,20.3,136.8,20.5,136.5,20.5z"/>
			<path id="XMLID_429_" class="st12" d="M136.5,20.4c0,0,0.1-0.1,0.2-0.1"/>
			<path id="XMLID_428_" class="st12" d="M136.3,20.5c0,0,0.2-0.1,0.2-0.2"/>
			<path id="XMLID_427_" class="st12" d="M136.3,20.7c0,0,0.1-0.1,0.1-0.1"/>
			<path id="XMLID_426_" class="st10" d="M136.7,19.7c0,0,0.4-0.2,0.4-0.6c-0.2,0-0.5,0.1-0.6,0.6C136.6,19.7,136.7,19.7,136.7,19.7
				z"/>
			<path id="XMLID_425_" class="st10" d="M136.3,20.1c0,0,0.3,0,0.4-0.5c-0.2,0-0.3-0.1-0.5,0.4C136.3,20,136.3,20.1,136.3,20.1z"/>
			<line id="XMLID_424_" class="st12" x1="136.6" y1="19.7" x2="136.7" y2="19.6"/>
			<line id="XMLID_423_" class="st12" x1="136.8" y1="19.7" x2="137" y2="19.6"/>
			<path id="XMLID_422_" class="st12" d="M136.7,20.2c0,0,0.1-0.1,0.1-0.1"/>
			<line id="XMLID_421_" class="st12" x1="137.2" y1="19.8" x2="137.4" y2="19.5"/>
			<path id="XMLID_420_" class="st12" d="M137,19.5c0,0,0.3-0.3,0.3-0.3"/>
			<line id="XMLID_419_" class="st12" x1="136.8" y1="19.4" x2="137" y2="19.2"/>
			<line id="XMLID_418_" class="st12" x1="136.7" y1="19" x2="136.9" y2="18.9"/>
			<path id="XMLID_417_" class="st12" d="M137.6,19.4c0,0,0.2-0.3,0.3-0.3"/>
			<path id="XMLID_416_" class="st12" d="M137.6,19c0,0,0.3-0.2,0.4-0.2"/>
			<line id="XMLID_415_" class="st12" x1="137" y1="18.8" x2="137.2" y2="18.7"/>
			<path id="XMLID_414_" class="st12" d="M138.2,18.7c0,0,0.2-0.2,0.3-0.2"/>
			<path id="XMLID_413_" class="st12" d="M138.5,18.8c0,0,0.2-0.2,0.3-0.1"/>
			<path id="XMLID_412_" class="st12" d="M139,18.7c0,0,0.1-0.2,0.4-0.2"/>
			<path id="XMLID_411_" class="st12" d="M138.7,18.4c0,0,0.3-0.1,0.4-0.1"/>
			<path id="XMLID_410_" class="st12" d="M138,19c0,0,0.2-0.2,0.4-0.2"/>
			<line id="XMLID_409_" class="st12" x1="137.1" y1="19.4" x2="137" y2="19.5"/>
			<path id="XMLID_408_" class="st12" d="M139.5,18.5c0,0,0.4,0,0.4-0.1"/>
			<path id="XMLID_407_" class="st12" d="M139.5,18c0,0-0.2,0.1-0.3,0.1"/>
			<line id="XMLID_406_" class="st12" x1="139.7" y1="18" x2="139.6" y2="18.1"/>
			<path id="XMLID_405_" class="st12" d="M140.1,18c0,0,0.3,0,0.4,0"/>
			<line id="XMLID_404_" class="st12" x1="137.6" y1="18.5" x2="137.3" y2="18.6"/>
			<line id="XMLID_403_" class="st12" x1="138" y1="18.1" x2="137.7" y2="18.2"/>
			<path id="XMLID_402_" class="st12" d="M138,18.2c0,0,0.2-0.1,0.3-0.1"/>
			<path id="XMLID_401_" class="st12" d="M138.6,17.9c0,0,0.1-0.1,0.2,0"/>
			<path id="XMLID_400_" class="st12" d="M139.1,17.7c0,0,0.1-0.1,0.2,0"/>
			<line id="XMLID_399_" class="st12" x1="139.5" y1="17.6" x2="139.8" y2="17.6"/>
			<path id="XMLID_398_" class="st12" d="M139.9,17.6c0,0,0.3-0.1,0.4,0"/>
			<path id="XMLID_397_" class="st12" d="M136.5,19.1c0,0-0.1,0.1-0.2,0.2"/>
			<path id="XMLID_396_" class="st10" d="M135.6,27c0,0-0.1-0.4-0.5-0.6c0,0.3,0.3,0.5,0.3,0.5C135.6,26.9,135.6,27,135.6,27z"/>
			<path id="XMLID_395_" class="st10" d="M135.3,26.1c0,0-0.1-0.2-0.4-0.2c0.1,0.4,0.3,0.6,0.4,0.7c0.1,0,0.3,0.1,0.3,0.1
				L135.3,26.1z"/>
			<path id="XMLID_394_" class="st10" d="M134.9,25.4c0,0,0-0.2-0.2-0.3C134.7,25.3,134.9,25.4,134.9,25.4L134.9,25.4z"/>
			<path id="XMLID_393_" class="st10" d="M135.2,25.7c0,0-0.1-0.3-0.5-0.4c0,0.3,0.1,0.4,0.2,0.6c0.2,0.1,0.3,0.2,0.3,0.2l0-0.2
				L135.2,25.7z"/>
			<path id="XMLID_392_" class="st12" d="M135.2,25.8c0,0-0.2-0.2-0.3-0.3"/>
			<path id="XMLID_391_" class="st12" d="M136.9,25c0,0,0,0.2,0,0.3"/>
			<path id="XMLID_390_" class="st12" d="M135.4,23.5c0,0,0-0.1,0-0.2c0-0.1,0-0.2,0-0.2"/>
			<path id="XMLID_389_" class="st10" d="M137.7,26.9c0,0-0.1-0.1-0.2-0.1c0,0.1,0,0.1,0.1,0.2c0,0.1,0,0.1,0,0.1
				c0.1,0.1,0.2,0.2,0.3,0.2c0-0.1-0.1-0.2-0.1-0.2L137.7,26.9z"/>
			<g id="XMLID_384_">
				<path id="XMLID_388_" class="st10" d="M138.3,27.1c0,0,0.1-0.2-0.4-0.6c0,0.2,0.2,0.5,0.2,0.5C138.2,27,138.3,27.1,138.3,27.1z"
					/>
				<path id="XMLID_387_" class="st10" d="M138.4,27.2c0,0-0.1-0.4-0.5-0.7c0,0.2,0,0.3,0.1,0.5C138.2,27.3,138.4,27.2,138.4,27.2z"
					/>
				<path id="XMLID_386_" class="st10" d="M138.5,27.6c0,0-0.1,0.2-0.4,0c-0.2-0.1-0.2-0.3-0.2-0.4c0.2,0,0.3,0,0.4,0
					C138.5,27.3,138.5,27.6,138.5,27.6z"/>
				<path id="XMLID_385_" class="st10" d="M138.2,27.2c0,0-0.2-0.2-0.2-0.3c0-0.1-0.2-0.1-0.2-0.1c0,0.3,0.1,0.4,0.3,0.5
					C138.2,27.3,138.2,27.2,138.2,27.2z"/>
			</g>
			<path id="XMLID_383_" class="st11" d="M142.6,28.1L142.6,28.1L142.6,28.1l0.1-0.1l0.1-0.4l0-0.1l0.4,0.1c0,0,0.1,0,0.2,0l0.1-0.1
				l0.2-0.1l0.3,0l0.3,0.1l0.4,0.2l0.3,0.2l0.5,0.3c0,0,0,0.1-0.1,0.2c-0.3,0-0.5,0.2-0.7,0.4c-0.1,0.2-0.3,0.5-0.5,0.5l-0.3,0
				c-0.2,0-0.2-0.1-0.2-0.2l0,0L142.6,28.1L142.6,28.1z"/>
			<path id="XMLID_382_" class="st10" d="M143.3,27.1c0,0-0.1-0.2,0.4-0.6c0,0.2-0.2,0.5-0.2,0.5C143.4,27,143.3,27.1,143.3,27.1z"
				/>
			<path id="XMLID_381_" class="st10" d="M143.2,27.2c0,0,0.1-0.4,0.5-0.7c0,0.2,0,0.3-0.1,0.5C143.4,27.3,143.2,27.2,143.2,27.2z"
				/>
			<path id="XMLID_380_" class="st10" d="M143.3,27.2c0,0,0.2-0.2,0.2-0.3c0-0.1,0.2-0.1,0.2-0.1c0,0.3-0.1,0.4-0.3,0.5
				C143.3,27.3,143.3,27.2,143.3,27.2z"/>
			<path id="XMLID_379_" class="st10" d="M144.8,25.1c0,0,0-0.3-0.1-0.2c-0.1,0-0.1,0.2-0.2,0.2c0,0.1-0.3,1.1-0.3,1.1l0.6-0.3
				L144.8,25.1z"/>
			<path id="XMLID_378_" class="st12" d="M143.5,24.2c0,0,0.2-0.1,0.3-0.1"/>
			<path id="XMLID_377_" class="st10" d="M143.7,26.8c0,0,0.5-0.4,0.2-1.6c-0.1-0.5-0.5-1.2-1.4-1.4c0.4,0,1.1,0.2,1.6,1.3
				c0.1,0.3,0.5,1.1,0.5,1.1l0.1,0.3l0,0.1l-0.5,0.9l-0.8,0.1l0.2-0.5V26.8z"/>
			<path id="XMLID_376_" class="st10" d="M143.1,27.6c0,0,0.1,0.2,0.4,0c0.2-0.1,0.2-0.3,0.2-0.4c-0.2,0-0.3,0-0.4,0
				C143.1,27.3,143.1,27.6,143.1,27.6z"/>
			<g id="XMLID_282_">
				<circle id="XMLID_375_" class="st10" cx="140.8" cy="27.2" r="2.2"/>
				<path id="XMLID_374_" class="st10" d="M142.4,25.8c0,0,0.1,0.1,0.1,0.1l0.1,0.1l-0.1,0.2l0,0l-0.1-0.1c0-0.1-0.1-0.1-0.2-0.2
					c0,0,0-0.1-0.1-0.1c0,0,0,0,0,0L142.4,25.8C142.4,25.8,142.4,25.8,142.4,25.8z"/>
				<path id="XMLID_373_" class="st10" d="M140.8,25.1c0.1,0,0.1,0,0.2,0l0,0.1l0.1,0.1l0,0c0,0,0,0,0,0c-0.1,0-0.2,0-0.3,0
					c-0.1,0-0.2,0-0.2,0c0,0,0,0,0,0l0.1-0.1l0-0.1C140.7,25.1,140.7,25.1,140.8,25.1z"/>
				<path id="XMLID_372_" class="st10" d="M139.8,25.3c0,0,0.1-0.1,0.2-0.1l0,0l0.1,0.1c0,0,0,0,0,0c-0.1,0-0.2,0.1-0.2,0.1
					c-0.1,0-0.1,0.1-0.2,0.1c0,0,0,0,0,0l0-0.1l0-0.1C139.8,25.3,139.8,25.3,139.8,25.3z"/>
				<path id="XMLID_371_" class="st10" d="M139.1,25.9c0,0,0.1-0.1,0.1-0.1l0.1,0l0.1,0c0,0,0,0,0,0c-0.1,0.1-0.1,0.1-0.2,0.2
					c0,0.1-0.1,0.1-0.1,0.2c0,0,0,0,0,0l-0.1-0.1L139.1,25.9C139,26,139,25.9,139.1,25.9z"/>
				<path id="XMLID_370_" class="st10" d="M138.7,26.8c0-0.1,0-0.1,0-0.2l0,0l0.1,0l0.1,0l0,0l0,0c0,0.1-0.1,0.2-0.1,0.3
					c0,0.1,0,0.1,0,0.2c0,0,0,0,0,0l-0.2-0.1C138.6,26.9,138.7,26.8,138.7,26.8z"/>
				<path id="XMLID_369_" class="st10" d="M138.7,27.8c0-0.1,0-0.1,0-0.2l0,0l0.2-0.1l0,0l0,0c0,0.1,0,0.2,0,0.3
					c0,0.1,0,0.1,0.1,0.2c0,0,0,0,0,0L138.7,27.8C138.7,27.8,138.7,27.8,138.7,27.8z"/>
				<path id="XMLID_368_" class="st10" d="M139.1,28.6c0,0-0.1-0.1-0.1-0.1l0,0l0.1-0.2l0,0l0,0c0,0.1,0.1,0.1,0.2,0.2
					c0,0,0.1,0.1,0.1,0.1c0,0,0,0,0,0l-0.1,0L139.1,28.6C139.2,28.7,139.1,28.7,139.1,28.6z"/>
				<path id="XMLID_365_" class="st10" d="M139.9,29.2c-0.1,0-0.1-0.1-0.2-0.1l-0.1,0l0-0.2l0,0l0,0c0.1,0,0.2,0.1,0.2,0.1
					c0.1,0,0.1,0,0.2,0.1c0,0,0,0,0,0l-0.1,0.1L139.9,29.2C139.9,29.2,139.9,29.2,139.9,29.2L139.9,29.2z M140.1,29.1"/>
				<path id="XMLID_364_" class="st10" d="M140.9,29.4c-0.1,0-0.1,0-0.2,0l-0.1,0l-0.1-0.2l0,0l0.1,0c0.1,0,0.2,0,0.3,0
					c0.1,0,0.1,0,0.2,0c0,0,0,0,0,0L140.9,29.4L140.9,29.4C140.9,29.4,140.9,29.4,140.9,29.4z"/>
				<path id="XMLID_363_" class="st10" d="M141.8,29.2c-0.1,0-0.1,0.1-0.2,0.1l-0.1,0l-0.2-0.1l0,0l0.1,0c0.1,0,0.2-0.1,0.2-0.1
					c0,0,0.1,0,0.1-0.1c0,0,0,0,0,0L141.8,29.2L141.8,29.2C141.8,29.1,141.8,29.1,141.8,29.2z"/>
				<path id="XMLID_362_" class="st10" d="M142.5,28.5c0,0-0.1,0.1-0.1,0.1l-0.1,0.1l-0.2-0.1l0,0l0.1-0.1c0.1-0.1,0.1-0.1,0.2-0.2
					c0,0,0.1-0.1,0.1-0.1c0,0,0,0,0,0L142.5,28.5L142.5,28.5C142.6,28.5,142.5,28.5,142.5,28.5z"/>
				<path id="XMLID_361_" class="st10" d="M142.9,27.6c0,0.1,0,0.1,0,0.2l0,0.1l-0.2,0l0,0l0-0.1c0-0.1,0-0.2,0.1-0.3
					c0,0,0-0.1,0-0.1c0,0,0,0,0,0L142.9,27.6C142.9,27.6,142.9,27.6,142.9,27.6z"/>
				<path id="XMLID_360_" class="st10" d="M142.9,26.6c0,0.1,0,0.1,0,0.2l0,0.1l-0.2,0.1l0,0l0-0.1c0-0.1,0-0.2-0.1-0.3
					c0,0,0-0.1,0-0.1c0,0,0,0,0,0L142.9,26.6C142.9,26.6,142.9,26.6,142.9,26.6z"/>
				<path id="XMLID_359_" class="st10" d="M141.6,25.2c0.1,0,0.1,0,0.2,0.1l0.1,0.1l0,0.2l0,0l-0.1-0.1c-0.1,0-0.2-0.1-0.2-0.1
					c0,0-0.1,0-0.1,0c0,0,0,0,0,0C141.5,25.3,141.6,25.2,141.6,25.2z"/>
				<g id="XMLID_354_">
					<polygon id="XMLID_358_" class="st10" points="140.6,25.1 140.6,25.1 140.6,25.3 140.5,25.3 140.5,25.1 140.5,25.1 140.5,24.9 
						140.5,24.9 					"/>
					<g id="XMLID_355_">
						<polygon id="XMLID_357_" class="st10" points="140.2,25.3 140,25.3 140,25.2 140,25 140,25 140.2,25.2 140.2,25.2 140.2,25.3 
													"/>
						<path id="XMLID_356_" class="st10" d="M140,25c0.2-0.1,0.3-0.1,0.5-0.1l0,0l-0.1,0.2l0,0c-0.1,0-0.2,0-0.3,0.1l0,0l0,0L140,25
							L140,25z"/>
					</g>
				</g>
				<g id="XMLID_349_">
					<polygon id="XMLID_353_" class="st10" points="139.7,25.3 139.7,25.4 139.7,25.6 139.7,25.6 139.6,25.5 139.6,25.4 139.6,25.2 
						139.6,25.2 					"/>
					<g id="XMLID_350_">
						<polygon id="XMLID_352_" class="st10" points="139.4,25.8 139.3,25.8 139.2,25.8 139.1,25.6 139.1,25.6 139.3,25.6 
							139.3,25.7 139.4,25.8 						"/>
						<path id="XMLID_351_" class="st10" d="M139.1,25.6c0.1-0.1,0.3-0.2,0.4-0.3l0,0l0,0.2l0,0c-0.1,0.1-0.1,0.1-0.2,0.2l0,0l0,0
							L139.1,25.6L139.1,25.6z"/>
					</g>
				</g>
				<g id="XMLID_344_">
					<polygon id="XMLID_348_" class="st10" points="139,26 139,26.1 139.1,26.2 139.1,26.2 138.9,26.2 138.9,26.2 138.8,26 
						138.8,26 					"/>
					<g id="XMLID_345_">
						<polygon id="XMLID_347_" class="st10" points="138.9,26.5 138.8,26.6 138.7,26.6 138.6,26.5 138.6,26.5 138.8,26.4 
							138.8,26.4 138.9,26.5 						"/>
						<path id="XMLID_346_" class="st10" d="M138.6,26.5c0.1-0.2,0.1-0.3,0.2-0.5l0,0l0.1,0.2l0,0c0,0.1-0.1,0.2-0.1,0.2l0,0l0,0
							L138.6,26.5L138.6,26.5z"/>
					</g>
				</g>
				<g id="XMLID_339_">
					<polygon id="XMLID_343_" class="st10" points="138.6,26.9 138.7,26.9 138.8,27 138.8,27 138.7,27.1 138.6,27.1 138.5,27 
						138.5,27 					"/>
					<g id="XMLID_340_">
						<polygon id="XMLID_342_" class="st10" points="138.8,27.4 138.7,27.5 138.6,27.6 138.5,27.5 138.5,27.5 138.6,27.4 
							138.7,27.4 138.8,27.4 						"/>
						<path id="XMLID_341_" class="st10" d="M138.4,27.5c0-0.2,0-0.4,0-0.5c0,0,0,0,0,0l0.2,0.1l0,0c0,0.1,0,0.2,0,0.3l0,0l0,0
							L138.4,27.5L138.4,27.5z"/>
					</g>
				</g>
				<g id="XMLID_334_">
					<polygon id="XMLID_338_" class="st10" points="138.7,27.9 138.8,27.9 138.9,27.9 138.9,27.9 138.8,28 138.8,28 138.6,28 
						138.6,28 					"/>
					<g id="XMLID_335_">
						<polygon id="XMLID_337_" class="st10" points="139.1,28.3 139,28.4 139,28.5 138.8,28.5 138.8,28.5 138.9,28.3 138.9,28.3 
							139.1,28.3 						"/>
						<path id="XMLID_336_" class="st10" d="M138.8,28.5c-0.1-0.1-0.2-0.3-0.2-0.5c0,0,0,0,0,0l0.2,0l0,0c0,0.1,0.1,0.2,0.1,0.3l0,0
							l0,0L138.8,28.5L138.8,28.5z"/>
					</g>
				</g>
				<g id="XMLID_329_">
					<polygon id="XMLID_333_" class="st10" points="139.2,28.7 139.2,28.7 139.4,28.7 139.4,28.7 139.3,28.8 139.3,28.8 139.1,28.9 
						139.1,28.9 					"/>
					<g id="XMLID_330_">
						<polygon id="XMLID_332_" class="st10" points="139.7,28.9 139.7,29.1 139.7,29.1 139.5,29.2 139.5,29.2 139.5,29 139.6,29 
							139.7,28.9 						"/>
						<path id="XMLID_331_" class="st10" d="M139.5,29.2c-0.1-0.1-0.3-0.2-0.4-0.3c0,0,0.2,0,0.2-0.1l0,0c0.1,0.1,0.1,0.1,0.2,0.2
							l0,0l0,0L139.5,29.2L139.5,29.2z"/>
					</g>
				</g>
				<g id="XMLID_324_">
					<polygon id="XMLID_328_" class="st10" points="140,29.3 140,29.2 140.1,29.1 140.1,29.1 140.1,29.3 140.1,29.3 140,29.4 
						140,29.4 					"/>
					<g id="XMLID_325_">
						<polygon id="XMLID_327_" class="st10" points="140.5,29.2 140.6,29.3 140.6,29.4 140.5,29.6 140.5,29.6 140.4,29.4 
							140.4,29.3 140.5,29.2 						"/>
						<path id="XMLID_326_" class="st10" d="M140.5,29.6c-0.1,0-0.5-0.1-0.5-0.1l0.2-0.1l0,0c0.1,0,0.2,0,0.3,0.1l0,0l0,0
							L140.5,29.6L140.5,29.6z"/>
					</g>
				</g>
				<g id="XMLID_319_">
					<polygon id="XMLID_323_" class="st10" points="140.9,29.4 141,29.4 141,29.2 141,29.2 141.1,29.3 141.1,29.4 141,29.6 
						141,29.6 					"/>
					<g id="XMLID_320_">
						<polygon id="XMLID_322_" class="st10" points="141.4,29.1 141.5,29.2 141.6,29.3 141.6,29.5 141.5,29.5 141.4,29.3 
							141.4,29.3 141.4,29.1 						"/>
						<path id="XMLID_321_" class="st10" d="M141.5,29.5c-0.2,0.1-0.3,0.1-0.5,0.1l0,0l0.1-0.2l0,0c0.1,0,0.2,0,0.3-0.1l0,0l0,0
							L141.5,29.5L141.5,29.5z"/>
					</g>
				</g>
				<g id="XMLID_314_">
					<polygon id="XMLID_318_" class="st10" points="141.9,29.1 141.9,29.1 141.8,28.9 141.9,28.9 142,29 142,29 142,29.2 142,29.2 
											"/>
					<g id="XMLID_315_">
						<polygon id="XMLID_317_" class="st10" points="142.2,28.7 142.3,28.7 142.4,28.7 142.4,28.9 142.4,28.9 142.2,28.9 
							142.2,28.8 142.2,28.7 						"/>
						<path id="XMLID_316_" class="st10" d="M142.4,28.9c-0.1,0.1-0.3,0.2-0.4,0.3c0,0,0,0,0,0l0-0.2l0,0c0.1-0.1,0.2-0.1,0.2-0.2
							l0,0l0,0L142.4,28.9L142.4,28.9z"/>
					</g>
				</g>
				<g id="XMLID_309_">
					<polygon id="XMLID_313_" class="st10" points="142.6,28.5 142.5,28.4 142.5,28.3 142.5,28.3 142.6,28.3 142.7,28.3 142.8,28.5 
						142.8,28.5 142.7,28.5 					"/>
					<g id="XMLID_310_">
						<polygon id="XMLID_312_" class="st10" points="142.6,27.9 142.8,27.9 142.9,27.9 143,28 143,28 142.8,28.1 142.8,28 
							142.6,27.9 						"/>
						<path id="XMLID_311_" class="st10" d="M143,28c-0.1,0.2-0.1,0.3-0.2,0.5l0,0l-0.1-0.2l0,0c0-0.1,0.1-0.2,0.1-0.2l0,0l0,0
							L143,28L143,28z"/>
					</g>
				</g>
				<g id="XMLID_304_">
					<polygon id="XMLID_308_" class="st10" points="142.9,27.6 142.9,27.5 142.8,27.5 142.8,27.5 142.9,27.4 143,27.4 143.1,27.5 
						143.1,27.5 					"/>
					<g id="XMLID_305_">
						<polygon id="XMLID_307_" class="st10" points="142.8,27.1 142.9,27 142.9,26.9 143.1,27 143.1,27 143,27.1 142.9,27.1 
							142.8,27.1 						"/>
						<path id="XMLID_306_" class="st10" d="M143.1,27c0,0.2,0,0.4,0,0.5l0,0l-0.2-0.1l0,0c0-0.1,0-0.2,0-0.3l0,0l0,0L143.1,27
							L143.1,27z"/>
					</g>
				</g>
				<g id="XMLID_299_">
					<polygon id="XMLID_303_" class="st10" points="142.9,26.6 142.8,26.6 142.7,26.6 142.7,26.6 142.8,26.5 142.8,26.4 143,26.5 
						143,26.5 143,26.5 143,26.5 					"/>
					<g id="XMLID_300_">
						<polygon id="XMLID_302_" class="st10" points="142.5,26.2 142.6,26.1 142.6,26 142.8,26 142.8,26 142.7,26.2 142.6,26.2 
							142.5,26.2 						"/>
						<path id="XMLID_301_" class="st10" d="M142.8,26c0.1,0.2,0.2,0.3,0.2,0.5l0,0l-0.2,0l0,0c0-0.1-0.1-0.2-0.1-0.3l0,0l0,0
							L142.8,26L142.8,26z"/>
					</g>
				</g>
				<g id="XMLID_294_">
					<polygon id="XMLID_298_" class="st10" points="142.4,25.8 142.3,25.8 142.2,25.8 142.2,25.8 142.2,25.7 142.3,25.6 142.5,25.6 
						142.5,25.6 142.5,25.6 					"/>
					<g id="XMLID_295_">
						<polygon id="XMLID_297_" class="st10" points="141.9,25.6 141.9,25.4 141.9,25.4 142,25.3 142,25.3 142,25.5 142,25.5 
							141.9,25.6 						"/>
						<path id="XMLID_296_" class="st10" d="M142,25.3c0.1,0.1,0.3,0.2,0.4,0.3l0,0l-0.2,0l0,0c-0.1-0.1-0.1-0.1-0.2-0.2l0,0l0,0
							L142,25.3L142,25.3z"/>
					</g>
				</g>
				<g id="XMLID_289_">
					<polygon id="XMLID_293_" class="st10" points="141.6,25.2 141.6,25.3 141.4,25.4 141.4,25.4 141.4,25.2 141.4,25.2 141.6,25 
						141.6,25 141.6,25 					"/>
					<g id="XMLID_290_">
						<polygon id="XMLID_292_" class="st10" points="141,25.3 141,25.1 141,25.1 141.1,24.9 141.1,24.9 141.2,25.1 141.1,25.1 
							141.1,25.3 						"/>
						<path id="XMLID_291_" class="st10" d="M141.1,24.9c0.2,0,0.4,0.1,0.5,0.1l0,0l-0.2,0.1l0,0c-0.1,0-0.2,0-0.3-0.1l0,0l0,0
							L141.1,24.9L141.1,24.9z"/>
					</g>
				</g>
				<g id="XMLID_283_">
					<circle id="XMLID_288_" class="st12" cx="140.8" cy="27.2" r="0.3"/>
					<circle id="XMLID_287_" class="st12" cx="140.8" cy="27.2" r="0.5"/>
					<circle id="XMLID_286_" class="st12" cx="140.8" cy="27.2" r="1"/>
					<circle id="XMLID_285_" class="st12" cx="140.8" cy="27.2" r="1.4"/>
					<circle id="XMLID_284_" class="st12" cx="140.8" cy="27.2" r="1.5"/>
				</g>
			</g>
			<path id="XMLID_281_" class="st11" d="M140.8,29.5c0,0,0.9,0,1.8,0.3c0.2,0.1,0.6-0.1,0.8-0.4c0.1-0.1,0.2-0.2,0.3-0.4l0.1-0.1
				c0-0.1,0.1-0.2,0-0.3l-0.4-0.2l-0.4-0.2l0,0l-0.5-0.2l-0.6-0.1l-0.5-0.1l-0.5,0l-0.5,0l-0.5,0.1l-0.6,0.1c-0.4,0.1-1,0.3-1.4,0.5
				l-0.1,0c0.1,0.1,0,0.2,0.1,0.3c0.1,0.1,0.2,0.3,0.3,0.5c0.2,0.3,0.6,0.4,0.8,0.4C139.9,29.5,140.8,29.5,140.8,29.5z"/>
			<path id="XMLID_280_" class="st10" d="M141.5,30.2c0,0-0.1,0.3-0.2,0.1c-0.2,0.1-0.2,0.1-0.3,0c-0.1,0.2-0.2,0.2-0.3,0
				c-0.1,0.2-0.3,0.1-0.3,0c-0.2,0.1-0.3,0.1-0.3-0.1l0-0.6c0.3,0,0.6-0.1,0.7-0.1c0.1,0,0.6,0,0.6,0.1
				C141.4,29.7,141.5,30.2,141.5,30.2z"/>
			<g id="XMLID_275_">
				<path id="XMLID_279_" class="st12" d="M141.1,29.5c0.1,0,0.1,0,0.2,0l0,0.7l-0.2,0L141.1,29.5z"/>
				<path id="XMLID_278_" class="st12" d="M140.8,29.5c0,0,0.1,0,0.1,0l0,0.7l-0.2,0C140.8,29.9,140.8,29.6,140.8,29.5
					C140.8,29.5,140.8,29.5,140.8,29.5z"/>
				<polygon id="XMLID_277_" class="st12" points="140.4,29.5 140.6,29.5 140.6,30.2 140.5,30.2 				"/>
				<path id="XMLID_276_" class="st12" d="M140.2,29.5c0,0,0.1,0,0.1,0l0,0.7h-0.1L140.2,29.5z"/>
			</g>
			<g id="XMLID_272_">
				<line id="XMLID_274_" class="st12" x1="140" y1="29.8" x2="139.8" y2="29.9"/>
				<line id="XMLID_273_" class="st12" x1="139.8" y1="29.7" x2="139.5" y2="29.8"/>
			</g>
			<path id="XMLID_271_" class="st10" d="M143.2,24c-0.2,0.1-0.4,0.3-0.4,0.3C142.9,24.4,143.2,24.1,143.2,24
				C143.2,24,143.2,24,143.2,24z"/>
			<path id="XMLID_270_" class="st10" d="M143.3,24.1c0,0,0,0.3-0.5,0.3C142.9,24.3,143.1,24.1,143.3,24.1
				C143.3,24.1,143.3,24.1,143.3,24.1z"/>
			<path id="XMLID_269_" class="st12" d="M145.7,26c0,0,0-0.2,0.1-0.3c0.1-0.1,0.1-0.2,0.1-0.3c0,0,0,0,0.1,0
				c0.1-0.1,0.2-0.1,0.3-0.2c0,0,0,0.1,0,0.2c0,0.1-0.2,0.4-0.2,0.4L145.7,26z"/>
			<path id="XMLID_268_" class="st10" d="M144.6,25.7c0,0-0.1-0.4,0-0.8c0.1,0.1,0.1,0.4,0.1,0.6C144.7,25.7,144.6,25.7,144.6,25.7z
				"/>
			<path id="XMLID_267_" class="st10" d="M144.8,20.9c0,0-0.6-0.5-0.6-1C144.4,20.1,144.8,20.9,144.8,20.9z"/>
			<path id="XMLID_266_" class="st10" d="M144.6,20.2c0,0,0.1-0.5-0.6-0.7c0,0.2,0.1,0.3,0.1,0.3l0.2,0.3L144.6,20.2z"/>
			<path id="XMLID_265_" class="st10" d="M145.2,24.9c0,0,0.2-1,0-1.6c-0.2-0.6-0.6-1.2-0.6-1.2s0.3,0.2,0.9,0.9
				c0-0.5-0.2-1.2-0.4-1.5c-0.2-0.4-0.4-1-1.2-1.9c0.5,0.1,1.3,1,1.3,1l0.5,0.7l0.5,2.1l0,1.1L145.2,24.9z"/>
			<path id="XMLID_264_" class="st10" d="M144.9,26.3c0,0,0-0.4,0.3-0.6c0.3-0.2,0.5,0,0.5,0l0,0.5l-0.3,0.3l-0.2-0.1L144.9,26.3z"
				/>
			<path id="XMLID_263_" class="st10" d="M144.6,26.9l0-0.5l0.2-0.2c0.2,0,0.2,0,0.2,0.2c0,0.1-0.2,0.4-0.2,0.4L144.6,26.9z"/>
			<path id="XMLID_262_" class="st10" d="M145.4,26.6c0,0,0.1-0.5,0.6-0.7c0,0.1,0,0.2,0,0.2l-0.2,0.3l-0.1,0.1
				C145.6,26.5,145.4,26.6,145.4,26.6z"/>
			<path id="XMLID_261_" class="st12" d="M145.6,26.5c-0.1,0.2-0.4,0.7-0.4,0.7C145,26.8,145.3,26.4,145.6,26.5z"/>
			<path id="XMLID_260_" class="st10" d="M146.2,26.1c0,0,0.3-0.1,0.2-0.6c-0.3,0.3-0.5,0.6-0.5,0.6l-0.2,0.4l0.3-0.1L146.2,26.1z"
				/>
			<path id="XMLID_259_" class="st10" d="M146.3,25.4c0,0,0-0.2,0.3-0.3c0.1,0.1,0,0.3-0.1,0.5c-0.1,0.2-0.2,0.2-0.2,0.2l-0.1-0.1
				L146.3,25.4z"/>
			<path id="XMLID_258_" class="st10" d="M144.8,27.6c0,0,1.2-1.5,1.5-2.3c0.2-0.8,0.1-0.2,0.1-0.2c0,0.4-0.3,1-0.5,1.3
				c-0.4,0.5-1,1.4-1,1.4L144.8,27.6z"/>
			<path id="XMLID_257_" class="st11" d="M144.7,26.4c0,0,0.5-0.5,1.3-1c0.8-0.4,1.2-0.8,1.3-1c0.1-0.2,0.1-0.3,0-0.4
				c-0.1-0.2-0.1-0.4,0-0.5c0-0.1,0.1-0.6,0.1-0.6l0-0.4l-0.1-0.1l-0.1-0.1c0.2,0.4,0.2,0.9-0.1,1.3l-1.4,0.8l-0.6,0.4l-0.4,0.6
				l-0.1,0.4l0,0.3L144.7,26.4z"/>
			<path id="XMLID_256_" class="st12" d="M145.4,23.8c0,0,0-1-0.7-1.5"/>
			<path id="XMLID_255_" class="st10" d="M146,21.6c0,0,0.3,0.1,0.4,0.4c0.1,0.2,0,0.4,0,0.4l-0.3-0.2l-0.1-0.4L146,21.6z"/>
			<path id="XMLID_254_" class="st10" d="M146,22.4c0,0,0-0.4,0.1-0.6c0.2,0.1,0.4,0.4,0.2,0.9C146.1,22.5,146,22.4,146,22.4z"/>
			<path id="XMLID_253_" class="st10" d="M146,21.5c0,0,0-0.5,0-0.6c0.2,0.2,0.4,0.4,0.4,0.7c0.1,0.2,0.1,0.5,0.1,0.5l-0.3-0.1
				L146,21.5z"/>
			<path id="XMLID_252_" class="st10" d="M146,22c0,0,0.1-0.5-0.2-0.8c-0.1,0.3,0,0.7,0,0.7l0.1,0.2l0.1,0.1L146,22z"/>
			<path id="XMLID_251_" class="st10" d="M145.6,22.1l0.1-0.4c0.2,0.1,0.3,0.3,0.3,0.5c0,0.1-0.1,0.4-0.1,0.4l-0.2,0L145.6,22.1z"/>
			<path id="XMLID_250_" class="st10" d="M146.1,23c0,0,0.4-0.4-0.2-0.7c-0.2,0.3-0.1,0.7-0.1,0.7l0.1,0.2l0.1,0L146.1,23z"/>
			<path id="XMLID_249_" class="st12" d="M146.1,22.9c0,0,0-0.3-0.1-0.4"/>
			<path id="XMLID_248_" class="st10" d="M145.6,20.3c0,0,0-0.3-0.3-0.6c0,0.2,0,0.4,0,0.4L145.6,20.3z"/>
			<path id="XMLID_247_" class="st10" d="M145.1,20.2c0,0,0-0.3,0.1-0.4c0.2,0.2,0.4,0.4,0.5,0.6c0.1,0.1,0,0.3,0,0.3l0,0.2
				l-0.3-0.3L145.1,20.2z"/>
			<path id="XMLID_246_" class="st10" d="M145.7,21.4c0,0,0.3-0.4-0.3-0.8c-0.2,0.2-0.1,0.5-0.1,0.5L145.7,21.4z"/>
			<path id="XMLID_245_" class="st10" d="M145.7,21.8c0,0,0.2-0.3-0.2-0.7c0,0.2,0.1,0.7,0.1,0.7L145.7,21.8z"/>
			<path id="XMLID_244_" class="st10" d="M145.7,22c0,0,0.2-0.7-0.3-1c-0.1,0.2-0.1,0.4-0.1,0.4L145.7,22z"/>
			<path id="XMLID_243_" class="st10" d="M144.5,19.6c0,0-0.2-0.1-0.1-0.3c0.1,0,0.2,0,0.3,0.3C144.7,19.8,144.5,19.6,144.5,19.6z"
				/>
			<path id="XMLID_242_" class="st10" d="M143.5,19.1c0,0-0.1-0.3-0.1-0.3c0.2,0,0.8,0,0.8,0.4C144,19.3,143.5,19.1,143.5,19.1z"/>
			<path id="XMLID_241_" class="st10" d="M143.5,19.3c0,0,0-0.2,0-0.3c0.2,0,0.5,0.1,0.6,0.2c0.1,0.1,0.1,0.4,0.1,0.4l-0.4-0.1
				L143.5,19.3z"/>
			<path id="XMLID_240_" class="st10" d="M144.1,19.5c0,0-0.1-0.3,0-0.4c0.1,0,0.5,0.1,0.6,0.4c0.1,0.4-0.2,0.2-0.2,0.2L144.1,19.5z
				"/>
			<path id="XMLID_239_" class="st10" d="M144.6,20c0,0-0.1-0.1-0.1-0.5c0.2,0,0.5,0.1,0.5,0.1L145,20l0,0.2l-0.1,0.2L144.6,20z"/>
			<path id="XMLID_238_" class="st10" d="M145.4,20.8c0,0,0.2-0.3-0.5-0.9c0,0.4,0.2,0.8,0.3,0.8C145.4,20.9,145.4,20.8,145.4,20.8z
				"/>
			<path id="XMLID_237_" class="st10" d="M145.3,21.3c0,0,0.3-0.7-0.3-0.8c0,0.2,0,0.4,0,0.4L145.3,21.3L145.3,21.3z"/>
			<path id="XMLID_236_" class="st10" d="M145.7,24.4c0,0,0.1-1,0-1.5c-0.1-0.6-0.3-1.8-1.7-3.1c0.1,0,0.2,0.1,0.2,0.1
				c0.5,0.3,0.9,1,1.2,1.5c0.3,0.6,0.5,1.3,0.6,2.1l0,0.4l-0.1,0.4L145.7,24.4z"/>
			<path id="XMLID_235_" class="st10" d="M146.2,24.1c0,0-0.1-0.6,0-0.7c0.1-0.1,0.1-0.2,0.1-0.2c0.1,0.1,0.1,0.1,0.1,0.2
				c0,0.1,0,0.5,0,0.5S146.2,24.1,146.2,24.1z"/>
			<path id="XMLID_234_" class="st10" d="M146.1,24.1c0,0,0-0.4,0-0.5c0.1,0.1,0.1,0.4,0.1,0.4S146.1,24.1,146.1,24.1z"/>
			<path id="XMLID_233_" class="st12" d="M146.3,23.5c0,0,0.1-0.3,0.2-0.3c0.1-0.1,0.1-0.2,0.1-0.2c0.1,0.2,0.2,0.2,0.2,0.4
				c0,0.2,0,0.5,0,0.5l-0.4,0.2L146.3,23.5z"/>
			<path id="XMLID_232_" class="st10" d="M145.5,23.7c0,0-0.1-0.5,0-0.8c0.2,0.1,0.3,0.2,0.4,0.2c0,0,0.1,0.3,0.1,0.5
				c0,0.2-0.1,0.3-0.1,0.3L145.5,23.7z"/>
			<path id="XMLID_231_" class="st10" d="M145.4,24.4c0,0,0-0.2,0-0.4c0-0.2,0-0.3,0-0.3c0.2,0.1,0.5,0.3,0.4,0.7
				c-0.2,0.1-0.4,0.3-0.4,0.3S145.4,24.4,145.4,24.4z"/>
			<path id="XMLID_230_" class="st12" d="M145.7,24.4c0,0,0-0.2-0.1-0.2"/>
			<path id="XMLID_229_" class="st10" d="M145.4,24.6c0,0,0-0.1,0-0.3c0.1,0,0.2,0.2,0.2,0.2L145.4,24.6z"/>
			<path id="XMLID_228_" class="st12" d="M146.9,23.6c0,0,0.1-0.3,0-0.4"/>
			<path id="XMLID_227_" class="st12" d="M146.9,22.6c0,0-0.1-0.3-0.1-0.5"/>
			<path id="XMLID_226_" class="st10" d="M146.8,22.2c0,0-0.2-0.3-0.4-0.3c0.1,0.3,0.1,0.5,0.1,0.5l0.2,0.1L146.8,22.2z"/>
			<path id="XMLID_225_" class="st10" d="M146.6,23.1c0,0,0-0.6,0-0.7c0.3,0.1,0.5,0.3,0.4,0.5c0,0.2-0.1,0.5-0.1,0.5l-0.2,0
				L146.6,23.1z"/>
			<path id="XMLID_224_" class="st12" d="M146.8,23.2c0,0-0.1-0.1-0.1-0.4"/>
			<path id="XMLID_223_" class="st10" d="M146.7,23.8c0,0-0.1-0.4,0.1-0.6c0.1,0.2,0.2,0.4,0.1,0.5
				C146.8,23.8,146.7,23.8,146.7,23.8z"/>
			<path id="XMLID_222_" class="st10" d="M146.3,22.7l0-0.5c0,0,0.2,0,0.2,0.2c0,0.2,0.1,0.6,0.1,0.6v0.3l-0.2-0.2L146.3,22.7z"/>
			<path id="XMLID_221_" class="st10" d="M146.3,22.8c0,0,0-0.1,0-0.3c0.1,0.1,0.2,0.3,0.1,0.5C146.3,23.2,146.3,22.8,146.3,22.8z"
				/>
			<path id="XMLID_220_" class="st10" d="M146.5,24c0,0,0-1.6-0.1-2.1c0.2,0.1,0.2,0.8,0.2,1c0,0.4,0.1,0.9,0,1
				C146.6,24,146.5,24,146.5,24z"/>
			<path id="XMLID_219_" class="st10" d="M144.9,24.6c0,0-0.2-0.1,0-0.6C145,24.2,145,24.3,144.9,24.6
				C144.9,24.6,144.9,24.6,144.9,24.6z"/>
			<path id="XMLID_218_" class="st10" d="M144.9,25c0,0-0.1-0.2,0-0.6c0.2,0.2,0.2,0.3,0.2,0.5C145,25,144.9,25,144.9,25z"/>
			<path id="XMLID_217_" class="st10" d="M144.5,26c0,0,0-0.6,0.7-1.2c0.3-0.2,0.8-0.6,1.1-0.6c0.3-0.1,1.2-0.7,1.3-1.2
				c0-0.4-0.2-0.7-0.4-0.7l0.1,0.3c0.2,0.1,0.2,0.6,0,0.8c-0.4,0.3-0.6,0.5-1.5,1c-0.5,0.4-0.9,0.7-1,0.9c0,0.1-0.1,0.4-0.2,0.6
				C144.5,25.9,144.5,26,144.5,26z"/>
			<path id="XMLID_216_" class="st10" d="M144.2,25.8c0,0-0.1,0.2-0.5,0c0.2-0.1,0.4-0.2,0.5-0.1C144.2,25.8,144.2,25.8,144.2,25.8z
				"/>
			<path id="XMLID_215_" class="st10" d="M144.1,25.7c0,0-0.2-0.1-0.2-0.7c0-0.1,0.1-0.1,0.1-0.1c0.2,0.1,0.5,0.3,0.3,0.7
				C144.2,25.8,144.1,25.7,144.1,25.7z"/>
			<path id="XMLID_214_" class="st10" d="M144.2,25c0,0-0.3,0.3-0.6,0c0.1-0.2,0.4-0.2,0.5-0.1C144.1,25,144.2,25,144.2,25z"/>
			<path id="XMLID_213_" class="st12" d="M144.1,25.7c0,0,0.1-0.2-0.1-0.4"/>
			<path id="XMLID_212_" class="st12" d="M143.8,26.8c0,0,0.3-0.3,0.3-0.7"/>
			<path id="XMLID_211_" class="st10" d="M144.4,26.6c0,0-0.1-0.4,0.3-0.6c0,0.2,0,0.4-0.1,0.5C144.5,26.6,144.4,26.6,144.4,26.6z"
				/>
			<path id="XMLID_210_" class="st10" d="M144.2,24.2c0,0-0.1,0.1-0.5-0.3c0.1-0.1,0.4,0,0.5,0.1C144.3,24.2,144.2,24.2,144.2,24.2z
				"/>
			<path id="XMLID_209_" class="st12" d="M144.1,24.1c0,0-0.1-0.1-0.3-0.1"/>
			<path id="XMLID_208_" class="st10" d="M144.1,24c0,0,0-0.2-0.1-0.4c0.2,0.1,0.3,0.3,0.3,0.4c0,0.2-0.1,0.1-0.1,0.1L144.1,24z"/>
			<path id="XMLID_207_" class="st10" d="M144,24.5c0,0,0.2,0.1,0.4-0.2c0.1-0.1,0.1-0.3,0.1-0.3s0-0.1-0.1,0
				c-0.1,0-0.2,0.1-0.2,0.2C144.2,24.4,144,24.5,144,24.5z"/>
			<line id="XMLID_206_" class="st12" x1="144.2" y1="24.5" x2="144.5" y2="24.1"/>
			<path id="XMLID_205_" class="st10" d="M144.2,24.3c0,0,0-0.3,0.2-0.2C144.4,24.2,144.3,24.3,144.2,24.3
				C144.2,24.3,144.2,24.3,144.2,24.3z"/>
			<path id="XMLID_204_" class="st10" d="M144.6,25c0,0-0.2-0.1-0.2-0.3c0-0.2,0.1-0.3,0.2-0.2C144.6,24.6,144.7,24.8,144.6,25
				C144.6,25,144.6,25,144.6,25z"/>
			<path id="XMLID_203_" class="st12" d="M144.6,24.9c0,0,0-0.2-0.1-0.3"/>
			<path id="XMLID_202_" class="st12" d="M144.5,24.5c0,0,0.1-0.1,0.2,0"/>
			<path id="XMLID_201_" class="st12" d="M145,24.7c0,0,0.1,0.1,0.1,0.2"/>
			<path id="XMLID_200_" class="st12" d="M144.3,26.5c0,0,0-0.4,0.3-0.5c0.1,0,0.1,0,0.1,0l0,0.1l-0.1,0.2L144.3,26.5L144.3,26.5z"
				/>
			<path id="XMLID_199_" class="st12" d="M144.1,26.8c0,0,0-0.3,0.4-0.3c0,0.2-0.2,0.3-0.3,0.4C144.1,26.9,144.1,26.8,144.1,26.8z"
				/>
			<path id="XMLID_198_" class="st10" d="M145.7,26.1c0,0,0-0.3,0-0.4c0.1-0.1,0.2-0.1,0.3-0.2c0,0.2,0,0.4-0.1,0.5
				C145.7,26.1,145.7,26.1,145.7,26.1z"/>
			<path id="XMLID_197_" class="st12" d="M144.2,26.2c0,0,0.1,0.1,0.2,0.1"/>
			<path id="XMLID_196_" class="st12" d="M144.4,26.2c0,0,0-0.1,0-0.3C144.5,26.1,144.4,26.2,144.4,26.2z"/>
			<path id="XMLID_195_" class="st12" d="M144.4,26c0,0-0.1-0.3-0.1-0.4c0-0.1,0-0.5-0.1-0.6"/>
			<path id="XMLID_194_" class="st12" d="M144,26.6c0,0,0.2,0,0.3,0"/>
			<path id="XMLID_193_" class="st12" d="M144.1,26.4c0,0,0.1,0.1,0.1,0.1"/>
			<path id="XMLID_192_" class="st12" d="M143.9,27.2c0,0,0.2-0.1,0.2-0.3c-0.1,0-0.2,0.1-0.2,0.1L143.9,27.2z"/>
			<path id="XMLID_191_" class="st10" d="M144.1,27.4c0,0,0-0.4,0.2-0.5c0.1,0.1,0,0.4-0.1,0.5C144.3,27.4,144.1,27.4,144.1,27.4z"
				/>
			<path id="XMLID_190_" class="st12" d="M144.3,27.4c0,0,0.1-0.1,0.1-0.2"/>
			<path id="XMLID_189_" class="st12" d="M144.1,27c0,0,0-0.2,0.3-0.3c0,0.2-0.1,0.2-0.1,0.3C144.2,27.1,144.1,27,144.1,27z"/>
			<path id="XMLID_188_" class="st10" d="M144.5,27.1c0,0-0.2-0.4,0.3-0.6c0.1,0.3,0,0.5-0.2,0.6C144.5,27.1,144.5,27.1,144.5,27.1z
				"/>
			<path id="XMLID_187_" class="st12" d="M144.6,26.8c0,0,0,0.2-0.1,0.3"/>
			<path id="XMLID_186_" class="st10" d="M144.4,27.4c0,0,0-0.4,0.5-0.4c0,0.3-0.1,0.5-0.3,0.5C144.5,27.5,144.4,27.4,144.4,27.4z"
				/>
			<path id="XMLID_185_" class="st12" d="M144.4,27.4c0,0,0.2-0.2,0.3-0.3"/>
			<path id="XMLID_184_" class="st12" d="M145,27c0,0,0.1-0.1,0.1-0.2"/>
			<path id="XMLID_183_" class="st10" d="M144.9,26.7c0,0,0.1-0.5,0.4-0.6c0.1,0.1,0.1,0.3,0.1,0.4c0,0.1-0.1,0.2-0.1,0.2l-0.2,0
				L144.9,26.7z"/>
			<path id="XMLID_182_" class="st10" d="M144.6,27c0,0,0.3-0.5,0.6-0.4c-0.1,0.3-0.2,0.4-0.4,0.4C144.6,27.1,144.6,27,144.6,27z"/>
			<path id="XMLID_181_" class="st10" d="M145,25.8c0,0-0.1-0.5,0.2-0.6c0,0.1,0,0.3,0,0.3C145.2,25.7,145.1,25.8,145,25.8z"/>
			<path id="XMLID_180_" class="st10" d="M144.7,26.1c0,0,0.1-0.4,0.4-0.5C145,25.9,144.8,26.1,144.7,26.1
				C144.6,26.2,144.6,26.2,144.7,26.1L144.7,26.1z"/>
			<path id="XMLID_179_" class="st10" d="M145.5,27.4c0,0,0-0.6,0.6-0.8C146,26.7,145.8,27.4,145.5,27.4z"/>
			<path id="XMLID_178_" class="st12" d="M145.5,27.4c0,0,0.2-0.2,0.2-0.3c0-0.1,0.1-0.2,0.1-0.2"/>
			<path id="XMLID_177_" class="st10" d="M145.8,26.7c0,0-0.1-0.5,0.5-0.7c0,0.3-0.1,0.6-0.3,0.7C145.8,26.8,145.8,26.7,145.8,26.7z
				"/>
			<path id="XMLID_176_" class="st12" d="M146.1,26.5c0,0,0.1-0.2,0.1-0.3"/>
			<polygon id="XMLID_175_" class="st12" points="145.1,27.8 145.5,27.3 145.6,27.4 145.2,27.8 			"/>
			<path id="XMLID_174_" class="st12" d="M146.2,26.1c0,0,0-0.1,0.1-0.2c0.1-0.1,0.1-0.2,0.1-0.2"/>
			<path id="XMLID_173_" class="st10" d="M146.5,25.2c0,0,0-0.3,0.5-0.4c0,0.2,0,0.3-0.1,0.4c-0.1,0.1-0.2,0.3-0.2,0.3l-0.2,0.2
				l-0.1,0L146.5,25.2z"/>
			<path id="XMLID_172_" class="st12" d="M145.7,23.7c0,0,0-0.3-0.1-0.5"/>
			<path id="XMLID_171_" class="st10" d="M145.7,23.1c0,0-0.4-0.2-0.4-0.8c0.1,0,0.3,0.1,0.4,0.3C145.7,22.9,145.7,23.1,145.7,23.1z
				"/>
			<path id="XMLID_170_" class="st12" d="M145.7,23c0,0-0.1-0.3-0.3-0.4"/>
			<path id="XMLID_169_" class="st10" d="M145.4,22.4c0,0-0.4,0-0.5-0.6c0.2,0.1,0.5,0.3,0.5,0.4C145.4,22.3,145.4,22.4,145.4,22.4z
				"/>
			<path id="XMLID_168_" class="st10" d="M145.4,22.3c0,0-0.1-0.2,0-0.4c0.2,0.1,0.4,0.3,0.3,0.7c-0.2-0.2-0.2-0.2-0.2-0.2
				L145.4,22.3z"/>
			<path id="XMLID_167_" class="st12" d="M145.2,22.2c0,0-0.1-0.2-0.2-0.2"/>
			<path id="XMLID_166_" class="st10" d="M146.3,23.4c0,0,0.5-0.7-0.1-0.9c0,0.2-0.1,0.4-0.1,0.4L146.3,23.4z"/>
			<path id="XMLID_165_" class="st10" d="M146.1,23.7c0,0-0.3-0.3-0.1-0.8c0.2,0,0.3,0.1,0.3,0.6C146.2,23.6,146.1,23.7,146.1,23.7z
				"/>
			<line id="XMLID_164_" class="st12" x1="146.2" y1="22.8" x2="146.2" y2="22.6"/>
			<path id="XMLID_163_" class="st12" d="M146.2,22.3c0,0,0-0.3-0.1-0.5"/>
			<path id="XMLID_162_" class="st12" d="M146.7,22.7c0,0-0.1-0.2-0.2-0.3"/>
			<path id="XMLID_161_" class="st12" d="M145.7,21.1c0,0,0-0.3-0.2-0.4"/>
			<path id="XMLID_160_" class="st10" d="M146,21.1c0,0,0.1-0.3-0.4-0.9c-0.1,0.3,0,0.7,0,0.7L146,21.1z"/>
			<path id="XMLID_159_" class="st10" d="M145.9,21.4c0,0,0.2-0.4-0.3-0.6c0,0.2,0,0.4,0.1,0.6C145.8,21.4,145.9,21.4,145.9,21.4z"
				/>
			<path id="XMLID_158_" class="st12" d="M146.4,21.8c0,0-0.2-0.4-0.3-0.5"/>
			<line id="XMLID_157_" class="st12" x1="146.6" y1="21.9" x2="146.5" y2="21.6"/>
			<path id="XMLID_156_" class="st12" d="M145.9,20.9c0,0,0.1-0.2-0.2-0.4"/>
			<path id="XMLID_155_" class="st12" d="M145.9,21.7c0,0,0-0.3-0.1-0.5"/>
			<path id="XMLID_154_" class="st10" d="M145,20.5c0,0,0.1-0.6-0.5-0.6C144.5,20.3,144.7,20.5,145,20.5z"/>
			<path id="XMLID_153_" class="st12" d="M145,20.4c0,0-0.1-0.1-0.2-0.1"/>
			<path id="XMLID_152_" class="st12" d="M145.2,20.5c0,0-0.2-0.1-0.2-0.2"/>
			<path id="XMLID_151_" class="st12" d="M145.2,20.7c0,0-0.1-0.1-0.1-0.1"/>
			<path id="XMLID_150_" class="st10" d="M144.9,19.7c0,0-0.4-0.2-0.4-0.6c0.2,0,0.6,0.1,0.6,0.6C145,19.7,144.9,19.7,144.9,19.7z"
				/>
			<path id="XMLID_149_" class="st10" d="M145.2,20.1c0,0-0.4,0-0.5-0.5c0.2,0,0.3-0.1,0.5,0.4C145.3,20,145.2,20.1,145.2,20.1z"/>
			<line id="XMLID_148_" class="st12" x1="145" y1="19.7" x2="144.8" y2="19.6"/>
			<line id="XMLID_147_" class="st12" x1="144.7" y1="19.7" x2="144.4" y2="19.5"/>
			<path id="XMLID_146_" class="st12" d="M144.9,20.2c0,0-0.2-0.2-0.2-0.2"/>
			<line id="XMLID_145_" class="st12" x1="144.3" y1="19.8" x2="144.1" y2="19.5"/>
			<path id="XMLID_144_" class="st12" d="M144.5,19.5c0,0-0.3-0.3-0.3-0.3"/>
			<line id="XMLID_143_" class="st12" x1="144.8" y1="19.4" x2="144.5" y2="19.2"/>
			<line id="XMLID_142_" class="st12" x1="144.9" y1="19" x2="144.6" y2="18.9"/>
			<path id="XMLID_141_" class="st12" d="M143.9,19.4c0,0-0.2-0.3-0.4-0.3"/>
			<path id="XMLID_140_" class="st12" d="M143.9,19c0,0-0.3-0.2-0.4-0.2"/>
			<line id="XMLID_139_" class="st12" x1="144.5" y1="18.8" x2="144.3" y2="18.7"/>
			<path id="XMLID_138_" class="st12" d="M143.3,18.7c0,0-0.2-0.2-0.3-0.2"/>
			<path id="XMLID_137_" class="st12" d="M142.9,18.8c0,0-0.2-0.2-0.4-0.1"/>
			<path id="XMLID_136_" class="st12" d="M142.5,18.7c0,0-0.1-0.2-0.4-0.2"/>
			<path id="XMLID_135_" class="st12" d="M142.7,18.4c0,0-0.3-0.1-0.4-0.1"/>
			<path id="XMLID_134_" class="st12" d="M143.4,19c0,0-0.2-0.2-0.4-0.2"/>
			<path id="XMLID_133_" class="st12" d="M141.9,18.5c0,0-0.4,0-0.5-0.1"/>
			<path id="XMLID_132_" class="st12" d="M141.9,18c0,0,0.2,0.1,0.3,0.1"/>
			<line id="XMLID_131_" class="st12" x1="141.7" y1="18" x2="141.9" y2="18.1"/>
			<path id="XMLID_130_" class="st12" d="M141.3,18c0,0-0.4,0-0.4,0"/>
			<line id="XMLID_129_" class="st12" x1="143.9" y1="18.5" x2="144.2" y2="18.6"/>
			<line id="XMLID_128_" class="st12" x1="143.5" y1="18.1" x2="143.8" y2="18.2"/>
			<path id="XMLID_127_" class="st12" d="M143.5,18.2c0,0-0.2-0.1-0.3-0.1"/>
			<path id="XMLID_126_" class="st12" d="M142.9,17.9c0,0-0.1-0.1-0.2,0"/>
			<path id="XMLID_125_" class="st12" d="M142.4,17.7c0,0-0.1-0.1-0.2,0"/>
			<line id="XMLID_124_" class="st12" x1="142" y1="17.6" x2="141.6" y2="17.6"/>
			<path id="XMLID_123_" class="st12" d="M141.5,17.6c0,0-0.3-0.1-0.4,0"/>
			<path id="XMLID_122_" class="st12" d="M145,19.1c0,0,0.1,0.1,0.2,0.2"/>
			<path id="XMLID_121_" class="st10" d="M146,27c0,0,0.1-0.4,0.5-0.6c0,0.3-0.3,0.5-0.3,0.5C146,26.9,146,27,146,27z"/>
			<path id="XMLID_120_" class="st10" d="M146.3,26.1c0,0,0.1-0.2,0.4-0.2c-0.1,0.4-0.3,0.6-0.4,0.7c-0.1,0-0.3,0.1-0.3,0.1
				L146.3,26.1z"/>
			<path id="XMLID_119_" class="st10" d="M146.7,25.4c0,0,0-0.2,0.2-0.3C146.9,25.3,146.7,25.4,146.7,25.4L146.7,25.4z"/>
			<path id="XMLID_118_" class="st10" d="M146.4,25.7c0,0,0.1-0.3,0.5-0.4c0,0.3-0.1,0.4-0.3,0.6c-0.2,0.1-0.3,0.2-0.3,0.2l0-0.2
				L146.4,25.7z"/>
			<path id="XMLID_117_" class="st12" d="M146.4,25.8c0,0,0.2-0.2,0.3-0.3"/>
			<path id="XMLID_116_" class="st12" d="M144.6,25c0,0,0,0.2,0,0.3"/>
			<path id="XMLID_115_" class="st12" d="M146.2,23.5c0,0,0-0.1,0-0.2c0-0.1,0-0.2,0-0.2"/>
			<path id="XMLID_114_" class="st10" d="M143.8,26.9c0,0,0.1-0.1,0.2-0.1c0,0.1,0,0.1-0.1,0.2c0,0.1,0,0.1,0,0.1
				c-0.1,0.1-0.2,0.2-0.3,0.2c0-0.1,0.1-0.2,0.1-0.2L143.8,26.9z"/>
			<path id="XMLID_113_" class="st10" d="M138,28.5c-0.5,0.2-0.9,0.1-0.9-0.1c0-0.1,0-0.3,0.1-0.4c0.1,0,0.2,0,0.2,0
				c0.2,0.1,0.2,0.3,0.4,0.3c0.1,0,0.2,0,0.3-0.1c0.2-0.2,0.2-0.5,0-0.8c-0.2-0.2-0.8-0.2-1.2,0.1c-0.5,0.3-0.9,0.7-1.3,0.3
				c-0.2-0.2-0.1-0.4-0.1-0.4l-0.2-0.2c-0.1,0.5,0,0.7,0.1,0.8c0.2,0.2,0.4,0.3,0.7,0.2c0.3-0.1,0.7-0.4,0.7-0.4
				c0.2-0.1,1-0.5,1.2,0c0,0.1,0,0.2-0.1,0.3c-0.2,0.3-0.5-0.2-0.7-0.2c-0.1,0-0.3,0-0.4,0.1c-0.2,0.2-0.1,0.6,0.1,0.7
				c0.2,0.1,0.6,0.1,0.9-0.1c0.8-0.4,1.8-0.6,2.7-0.6c1.2,0,2.3,0.4,2.7,0.6c0.3,0.2,0.8,0.2,0.9,0.1c0.3-0.1,0.3-0.5,0.1-0.7
				c-0.1-0.1-0.3-0.1-0.4-0.1c-0.2,0.1-0.4,0.5-0.7,0.2c-0.1-0.1-0.1-0.2-0.1-0.3c0.2-0.5,1-0.1,1.2,0c0,0,0.4,0.3,0.7,0.4
				c0.3,0.1,0.5,0,0.7-0.2c0.1-0.1,0.2-0.2,0.1-0.7l-0.2,0.2c0,0.1,0,0.2-0.1,0.4c-0.4,0.4-0.8-0.1-1.3-0.3c-0.4-0.3-1-0.3-1.2-0.1
				c-0.2,0.2-0.2,0.6,0,0.8c0.1,0.1,0.2,0.1,0.3,0.1c0.2,0,0.2-0.2,0.4-0.3c0.1,0,0.1-0.1,0.2,0c0.1,0.1,0.2,0.2,0.1,0.4
				c-0.1,0.2-0.4,0.3-0.9,0.1c-1.4-0.7-2.6-0.6-2.8-0.6C139.8,27.8,138.9,28,138,28.5z"/>
			<g id="XMLID_55_">
				<g id="XMLID_100_">
					<path id="XMLID_112_" class="st9" d="M139.4,29L139.4,29L139.4,29C139.3,29.1,139.3,29.1,139.4,29c0,0.1,0,0.1,0,0.1l0.1,0.2
						l0,0l0-0.2c0,0,0,0,0,0C139.5,29,139.5,29,139.4,29L139.4,29L139.4,29l0.2-0.1l0,0l0,0c0,0,0,0,0,0l0,0.3l-0.1,0l-0.2-0.3
						c0,0,0,0-0.1,0l0,0l0,0L139.4,29z"/>
					<path id="XMLID_111_" class="st9" d="M139.9,28.9L139.9,28.9C139.8,28.9,139.8,28.9,139.9,28.9l0,0.3c0,0,0,0,0,0l0,0l0,0.1
						l-0.2,0l0-0.1l0,0c0,0,0,0,0,0l0-0.2c0,0,0,0,0,0l0,0l0-0.1L139.9,28.9L139.9,28.9z"/>
					<path id="XMLID_108_" class="st9" d="M140,28.9C140,28.9,140,28.9,140,28.9L140,28.9L140,28.9l0.3-0.1l0,0.1l-0.1,0
						c0-0.1,0-0.1-0.1-0.1l-0.1,0l0,0.1l0,0c0,0,0,0,0-0.1l0,0l0,0l0,0.2l0,0l0,0c0,0,0,0,0,0l0,0l0,0.1l0.1,0c0.1,0,0.1,0,0.1-0.1
						l0.1,0l0,0.2l-0.4,0l0-0.1l0,0c0,0,0,0,0,0L140,28.9L140,28.9z M140.1,28.8L140.1,28.8L140.1,28.8L140.1,28.8l0.1,0l0,0
						L140.1,28.8L140.1,28.8z"/>
					<circle id="XMLID_107_" class="st9" cx="140.1" cy="29.3" r="0"/>
					<path id="XMLID_106_" class="st9" d="M140.4,29l0-0.1l0.4,0l0,0.1l-0.1,0c0-0.1,0-0.1-0.1-0.1l0,0.3c0,0,0,0,0,0l0,0l0,0.1
						l-0.2,0l0-0.1l0,0c0,0,0,0,0,0l0-0.3C140.4,28.9,140.4,28.9,140.4,29L140.4,29z"/>
					<path id="XMLID_105_" class="st9" d="M141.3,29.1L141.3,29.1l0-0.2c0,0,0,0,0,0l0,0l0-0.1l0.2,0l0,0.1l0,0c0,0,0,0,0,0l0,0.3
						l-0.1,0l-0.1-0.3h0l0,0.2c0,0,0,0,0,0l0,0l0,0.1l-0.2,0l0-0.1l0,0c0,0,0,0,0,0l0-0.2c0,0,0,0,0,0l0,0l0-0.1l0.2,0L141.3,29.1z"
						/>
					<path id="XMLID_102_" class="st9" d="M141.7,28.9l-0.1,0.3c0,0,0,0,0,0l0,0l0,0.1l0.2,0l0-0.1l0,0c0,0,0,0,0,0c0,0,0,0,0,0l0,0
						l0.1,0l0,0c0,0,0,0,0,0c0,0,0,0,0,0l0,0l0,0.1l0.2,0l0-0.1l0,0c0,0,0,0,0,0l-0.1-0.3L141.7,28.9L141.7,28.9z M141.7,29
						L141.7,29l0,0.1l-0.1,0L141.7,29z"/>
					<path id="XMLID_101_" class="st9" d="M142.2,29l0,0.2l0,0l0.1-0.2l0.2,0.1l0,0l0,0c0,0,0,0,0,0l-0.1,0.2c0,0,0,0,0,0l0,0l0,0
						l-0.2-0.1l0,0l0,0c0,0,0,0,0,0l0.1-0.2l0,0l-0.2,0.3l-0.1,0l0-0.3l0,0l-0.1,0.2c0,0,0,0,0,0l0,0l0,0l-0.2,0l0,0l0,0
						c0,0,0,0,0,0L142,29c0,0,0,0,0,0l0,0l0,0L142.2,29z"/>
				</g>
				<g id="XMLID_56_">
					<path id="XMLID_99_" class="st9" d="M138.7,28.9C138.7,28.9,138.7,28.9,138.7,28.9c0,0.1,0,0.1,0,0.1c-0.1,0-0.1,0-0.1-0.1l0,0
						c0-0.1,0-0.1,0-0.1c0,0,0.1,0,0.1,0C138.7,28.8,138.7,28.8,138.7,28.9L138.7,28.9c-0.1-0.1-0.1-0.1-0.1-0.1c0,0,0,0.1,0,0.1
						l0,0.1C138.6,29,138.6,29,138.7,28.9C138.7,29,138.7,29,138.7,28.9L138.7,28.9z"/>
					<g id="XMLID_94_">
						<path id="XMLID_95_" class="st9" d="M138.7,28.6L138.7,28.6L138.7,28.6L138.7,28.6L138.7,28.6l0.1,0L138.7,28.6L138.7,28.6
							L138.7,28.6z M138.7,28.9L138.7,28.9c0-0.1-0.1-0.2,0-0.2c0.1,0,0.1,0,0.1,0.1l0,0c0,0.1,0,0.1,0,0.2
							C138.8,29,138.8,28.9,138.7,28.9L138.7,28.9z M138.8,28.8L138.8,28.8L138.8,28.8L138.8,28.8c0,0.1,0.1,0.1,0.1,0.1
							C138.9,28.9,138.9,28.9,138.8,28.8L138.8,28.8C138.8,28.8,138.8,28.7,138.8,28.8C138.7,28.7,138.8,28.8,138.8,28.8z"/>
					</g>
					<circle id="XMLID_93_" class="st9" cx="138.9" cy="29" r="0"/>
					<path id="XMLID_92_" class="st9" d="M139,28.6L139,28.6l0.1,0.2l-0.1,0l-0.1-0.1C139,28.8,139,28.7,139,28.6L139,28.6
						c0,0.1,0,0.1,0,0.2c0,0,0,0.1,0,0.1l0,0l0,0l-0.1-0.3L139,28.6l0,0.1c0,0,0,0.1,0.1,0.1l0,0c0,0,0,0,0-0.1
						C139.1,28.7,139.1,28.7,139,28.6L139,28.6z"/>
					<path id="XMLID_91_" class="st9" d="M139.2,28.7c0-0.1,0-0.1,0-0.1c0,0,0.1,0,0.1,0c0,0,0,0,0,0l0,0c0,0,0,0-0.1,0
						C139.2,28.6,139.2,28.6,139.2,28.7L139.2,28.7c0.1,0.1,0.1,0.1,0.1,0.1c0,0,0,0,0-0.1l0,0L139.2,28.7l0.2,0l0,0.1l0,0l0,0l0,0
						c0,0,0,0,0,0.1C139.2,28.8,139.2,28.8,139.2,28.7L139.2,28.7z"/>
					<polygon id="XMLID_90_" class="st9" points="139.6,28.7 139.5,28.6 139.6,28.6 139.6,28.7 139.7,28.7 139.6,28.4 139.6,28.4 
						139.6,28.5 139.5,28.6 139.5,28.4 139.4,28.5 139.5,28.7 					"/>
					<path id="XMLID_87_" class="st9" d="M139.7,28.5c0-0.1,0-0.1,0.1-0.1c0.1,0,0.1,0,0.1,0.1l0,0c0,0.1,0,0.1-0.1,0.1
						C139.7,28.7,139.7,28.6,139.7,28.5L139.7,28.5L139.7,28.5z M139.8,28.6C139.8,28.6,139.8,28.6,139.8,28.6
						C139.9,28.6,139.8,28.6,139.8,28.6L139.8,28.6c0-0.1,0-0.2,0-0.2C139.7,28.4,139.7,28.5,139.8,28.6L139.8,28.6z"/>
					<polygon id="XMLID_86_" class="st9" points="139.8,28.3 139.8,28.3 139.8,28.3 139.7,28.3 					"/>
					<path id="XMLID_83_" class="st9" d="M139.9,28.6l0-0.3l0.1,0l0.1,0.3l-0.1,0l0-0.1L139.9,28.6L139.9,28.6L139.9,28.6
						L139.9,28.6z M140,28.5L140,28.5L140,28.5c0-0.1,0-0.1,0-0.1c0,0,0,0,0,0l0,0c0,0,0,0,0,0C140,28.4,140,28.4,140,28.5L140,28.5
						z"/>
					<path id="XMLID_82_" class="st9" d="M140.3,28.4l0-0.1l-0.1,0L140.3,28.4C140.3,28.3,140.3,28.3,140.3,28.4L140.3,28.4
						C140.3,28.3,140.3,28.3,140.3,28.4l-0.1-0.1l-0.1,0L140.3,28.4l-0.1,0.2l0.1,0L140.3,28.4C140.3,28.5,140.3,28.5,140.3,28.4
						L140.3,28.4C140.3,28.4,140.3,28.5,140.3,28.4l0,0.1l0.1,0L140.3,28.4z"/>
					<path id="XMLID_79_" class="st9" d="M140.5,28.5L140.5,28.5L140.5,28.5L140.5,28.5l0.1,0l-0.1-0.3l-0.1,0L140.5,28.5
						L140.5,28.5L140.5,28.5z M140.5,28.3C140.5,28.3,140.5,28.3,140.5,28.3C140.5,28.3,140.5,28.3,140.5,28.3L140.5,28.3
						C140.5,28.3,140.5,28.3,140.5,28.3C140.5,28.3,140.5,28.3,140.5,28.3L140.5,28.3L140.5,28.3L140.5,28.3z"/>
					<path id="XMLID_78_" class="st9" d="M140.5,28.2C140.5,28.2,140.5,28.2,140.5,28.2C140.5,28.2,140.5,28.2,140.5,28.2
						C140.5,28.2,140.5,28.2,140.5,28.2C140.5,28.2,140.5,28.2,140.5,28.2L140.5,28.2C140.5,28.2,140.5,28.2,140.5,28.2
						C140.5,28.2,140.5,28.2,140.5,28.2C140.5,28.2,140.5,28.2,140.5,28.2C140.5,28.2,140.6,28.2,140.5,28.2L140.5,28.2z"/>
					<polygon id="XMLID_77_" class="st9" points="140.7,28.5 140.7,28.2 140.8,28.2 140.8,28.3 140.9,28.3 140.9,28.2 140.9,28.2 
						140.9,28.5 140.9,28.5 140.9,28.4 140.8,28.4 140.8,28.5 					"/>
					<g id="XMLID_72_">
						<path id="XMLID_73_" class="st9" d="M141,28.3c0-0.1,0-0.1,0.1-0.1c0.1,0,0.1,0.1,0.1,0.1l0,0c0,0.1,0,0.1-0.1,0.1
							C141,28.5,141,28.5,141,28.3L141,28.3L141,28.3z M141,28.4C141,28.4,141,28.5,141,28.4C141.1,28.5,141.1,28.4,141,28.4
							L141,28.4c0.1-0.1,0.1-0.1,0-0.1C141,28.3,141,28.3,141,28.4L141,28.4L141,28.4z M141.1,28.2l-0.1,0.3L141.1,28.2L141.1,28.2
							L141.1,28.2L141.1,28.2L141.1,28.2L141.1,28.2L141.1,28.2L141.1,28.2z"/>
					</g>
					<circle id="XMLID_71_" class="st9" cx="141.1" cy="28.6" r="0"/>
					
						<rect id="XMLID_70_" x="141.1" y="28.4" transform="matrix(-0.1345 0.9909 -0.9909 -0.1345 188.3684 -107.7403)" class="st9" width="0.3" height="0.1"/>
					<path id="XMLID_69_" class="st9" d="M141.5,28.5C141.5,28.5,141.5,28.5,141.5,28.5C141.4,28.5,141.4,28.5,141.5,28.5
						L141.5,28.5c0-0.1,0-0.2,0-0.1C141.5,28.3,141.5,28.4,141.5,28.5L141.5,28.5c0.1-0.1,0.1-0.1,0.1-0.1c0,0,0-0.1-0.1-0.1
						c-0.1,0-0.1,0-0.1,0.1l0,0C141.4,28.5,141.4,28.6,141.5,28.5C141.5,28.6,141.5,28.6,141.5,28.5
						C141.6,28.5,141.6,28.5,141.5,28.5L141.5,28.5z"/>
					<polygon id="XMLID_68_" class="st9" points="141.6,28.6 141.7,28.5 141.7,28.5 141.7,28.6 141.7,28.6 141.8,28.4 141.8,28.4 
						141.7,28.5 141.7,28.4 141.7,28.3 141.6,28.3 141.6,28.6 					"/>
					<path id="XMLID_67_" class="st9" d="M142,28.4L142,28.4l0,0.2c0,0.1,0,0.1-0.1,0.1c-0.1,0-0.1-0.1-0.1-0.1l0.1-0.2L142,28.4
						l-0.1,0.2c0,0,0,0.1,0,0.1c0,0,0,0,0,0L142,28.4z"/>
					<path id="XMLID_66_" class="st9" d="M142.3,28.6C142.3,28.6,142.3,28.6,142.3,28.6c0,0.1,0,0.1,0,0.1l0,0
						C142.2,28.7,142.2,28.6,142.3,28.6L142.3,28.6L142.3,28.6l-0.2,0.2l0,0l0,0c0,0,0,0,0-0.1C142.2,28.6,142.2,28.6,142.3,28.6
						L142.3,28.6c-0.1,0-0.1,0.1-0.1,0.1l0,0.1l0.1,0L142.3,28.6L142.3,28.6L142.3,28.6z"/>
					<path id="XMLID_65_" class="st9" d="M142.4,28.7c0-0.1,0.1-0.1,0.1-0.1c0,0,0.1,0,0.1,0.1c0,0,0,0,0,0l0,0c0,0,0,0,0-0.1
						C142.4,28.6,142.4,28.7,142.4,28.7L142.4,28.7c0,0.1,0,0.1,0,0.1C142.4,28.8,142.4,28.8,142.4,28.7L142.4,28.7L142.4,28.7
						l0.2,0.1l-0.1,0.1l0,0l0,0l0,0c0,0,0,0-0.1,0C142.3,28.8,142.3,28.8,142.4,28.7L142.4,28.7z"/>
					<polygon id="XMLID_64_" class="st9" points="142.6,28.9 142.6,28.8 142.7,28.8 142.6,28.9 142.7,29 142.8,28.7 142.7,28.7 
						142.7,28.8 142.6,28.8 142.7,28.7 142.6,28.6 142.5,28.9 					"/>
					<path id="XMLID_61_" class="st9" d="M142.8,29l0.1-0.2l0,0L142.8,29L142.8,29L142.8,29z M142.9,28.7L142.9,28.7
						C142.9,28.7,142.9,28.7,142.9,28.7C142.9,28.7,142.9,28.7,142.9,28.7C142.9,28.7,142.8,28.7,142.9,28.7
						C142.8,28.7,142.8,28.7,142.9,28.7l-0.1,0C142.8,28.7,142.8,28.7,142.9,28.7C142.9,28.7,142.9,28.7,142.9,28.7
						C142.9,28.7,142.9,28.7,142.9,28.7C142.9,28.7,142.9,28.7,142.9,28.7z"/>
					<path id="XMLID_58_" class="st9" d="M142.8,29L142.8,29L142.8,29L142.8,29l0.1,0.1l0.1-0.3l-0.1,0L142.8,29L142.8,29L142.8,29z
						 M142.9,28.9C143,28.9,143,28.9,142.9,28.9C143,28.9,143,28.9,142.9,28.9L142.9,28.9C143,28.9,143,28.9,142.9,28.9
						C143,28.9,143,28.9,142.9,28.9L142.9,28.9L142.9,28.9L142.9,28.9z"/>
					<path id="XMLID_57_" class="st9" d="M142,28.4L142,28.4C142,28.4,142,28.4,142,28.4C142,28.4,142,28.4,142,28.4
						C142,28.4,142,28.3,142,28.4C142,28.3,142,28.3,142,28.4C142,28.4,142,28.4,142,28.4C142,28.4,142,28.4,142,28.4
						C142,28.4,142,28.4,142,28.4C142,28.4,142,28.4,142,28.4C142,28.3,142,28.3,142,28.4C142,28.4,142,28.4,142,28.4
						C142,28.4,142,28.4,142,28.4C142,28.4,142,28.4,142,28.4L142,28.4z"/>
				</g>
			</g>
			<path id="XMLID_54_" class="st12" d="M143.7,29c0,0,0.1-0.2,0.1-0.4"/>
			<path id="XMLID_614_" class="st12" d="M138,29c0,0-0.1-0.2-0.1-0.4"/>
			<path id="XMLID_617_" class="st12" d="M143.6,25c0,0,0.3-0.2,0.5,0"/>
			<path id="XMLID_619_" class="st12" d="M137.9,25c0,0-0.3-0.2-0.5,0"/>
			<polygon id="XMLID_620_" class="st9" points="140.3,17.4 140.3,17.4 140.4,17.4 140.5,17.4 140.9,17.4 141,17.4 141.1,17.4 
				141.1,17.4 141.1,17.5 141.1,17.5 141,17.5 140.5,17.5 140.3,17.5 			"/>
		</g>
		<g id="XMLID_671_">
			<path id="XMLID_672_" class="st8" d="M137.9,13.5h-2.7v-2.6h-0.8V9.3h0.8V6.8h2.7c0.5,0,1,0.1,1.4,0.2c0.4,0.2,0.7,0.4,0.9,0.7
				c0.2,0.3,0.4,0.6,0.5,1c0.1,0.4,0.2,0.8,0.2,1.4c0,0.5-0.1,1-0.2,1.4c-0.1,0.4-0.3,0.8-0.5,1.1c-0.2,0.3-0.6,0.5-0.9,0.7
				S138.4,13.5,137.9,13.5z M136.9,12h0.7c0.2,0,0.4,0,0.6-0.1c0.2-0.1,0.3-0.1,0.5-0.3s0.3-0.3,0.3-0.6c0.1-0.3,0.1-0.6,0.1-1
				c0-0.3,0-0.5-0.1-0.8c0-0.2-0.1-0.4-0.2-0.6s-0.3-0.3-0.5-0.4c-0.2-0.1-0.5-0.2-0.8-0.2h-0.7v1.2h0.9v1.5h-0.9V12z"/>
			<path id="XMLID_675_" class="st8" d="M142.8,13.5h-1.7l2.1-6.7h2.2l2.1,6.7h-1.9l-0.4-1.4h-2L142.8,13.5z M144.9,6.3
				c-0.2,0-0.3,0-0.4-0.1c-0.1-0.1-0.2-0.1-0.3-0.2c-0.1-0.1-0.1-0.1-0.2-0.2c-0.1-0.1-0.1-0.1-0.2-0.1c-0.1,0-0.2,0-0.2,0.1
				c-0.1,0.1-0.1,0.2-0.1,0.3h-0.8c0-0.3,0.1-0.6,0.3-0.8s0.4-0.3,0.8-0.3c0.1,0,0.3,0,0.4,0.1c0.1,0.1,0.2,0.1,0.3,0.2
				c0.1,0.1,0.2,0.1,0.2,0.2c0.1,0.1,0.2,0.1,0.2,0.1c0.1,0,0.2,0,0.2-0.1s0.1-0.2,0.1-0.3h0.8c0,0.3-0.1,0.6-0.3,0.8
				S145.2,6.3,144.9,6.3z M144.3,8.3L144.3,8.3l-0.7,2.4h1.4L144.3,8.3z"/>
			<path id="XMLID_679_" class="st8" d="M153.2,13.5h-2.7v-2.6h-0.8V9.3h0.8V6.8h2.7c0.5,0,1,0.1,1.4,0.2s0.7,0.4,0.9,0.7
				c0.2,0.3,0.4,0.6,0.5,1s0.2,0.8,0.2,1.4c0,0.5-0.1,1-0.2,1.4s-0.3,0.8-0.5,1.1c-0.2,0.3-0.6,0.5-0.9,0.7
				C154.2,13.4,153.8,13.5,153.2,13.5z M152.3,12h0.7c0.2,0,0.4,0,0.6-0.1c0.2-0.1,0.3-0.1,0.5-0.3c0.1-0.1,0.3-0.3,0.3-0.6
				c0.1-0.3,0.1-0.6,0.1-1c0-0.3,0-0.5-0.1-0.8c0-0.2-0.1-0.4-0.2-0.6s-0.3-0.3-0.5-0.4c-0.2-0.1-0.5-0.2-0.8-0.2h-0.7v1.2h0.9v1.5
				h-0.9V12z"/>
			<path id="XMLID_682_" class="st8" d="M158.2,13.5h-1.7l2.1-6.7h2.2l2.1,6.7H161l-0.4-1.4h-2L158.2,13.5z M158.1,4.9h0.8
				c0,0.2,0.1,0.3,0.2,0.5c0.1,0.1,0.3,0.2,0.5,0.2s0.4-0.1,0.5-0.2c0.1-0.1,0.2-0.3,0.2-0.5h0.8c0,0.4-0.1,0.8-0.4,1
				c-0.3,0.3-0.6,0.4-1.1,0.4s-0.9-0.1-1.1-0.4C158.2,5.6,158.1,5.3,158.1,4.9z M159.6,8.3L159.6,8.3l-0.7,2.4h1.4L159.6,8.3z"/>
			<path id="XMLID_686_" class="st8" d="M165.1,13.5h-1.6V6.8h1.4l2.6,3.7h0.1V6.8h1.6v6.7h-1.3l-2.6-3.8h-0.1V13.5z"/>
			<path id="XMLID_688_" class="st8" d="M175.8,9h-1.7c0-0.3-0.1-0.5-0.3-0.7c-0.2-0.2-0.5-0.3-0.8-0.3c-0.4,0-0.7,0.1-0.9,0.4
				s-0.3,0.7-0.3,1.2v0.8c0,1.1,0.4,1.7,1.3,1.7c0.4,0,0.6-0.1,0.8-0.3c0.2-0.2,0.3-0.4,0.3-0.7V11h-1.1V9.8h2.7V11
				c0,0.2,0,0.5-0.1,0.7c-0.1,0.2-0.2,0.5-0.3,0.7c-0.1,0.2-0.3,0.4-0.5,0.6c-0.2,0.2-0.5,0.3-0.8,0.4c-0.3,0.1-0.7,0.1-1.1,0.1
				c-0.5,0-1-0.1-1.4-0.2s-0.7-0.4-0.9-0.7s-0.4-0.6-0.5-1c-0.1-0.4-0.2-0.8-0.2-1.2V9.7c0-0.6,0.1-1.1,0.3-1.6
				c0.2-0.5,0.6-0.8,1-1.1c0.5-0.3,1-0.4,1.6-0.4c0.5,0,0.9,0.1,1.2,0.2s0.7,0.3,0.9,0.5c0.2,0.2,0.4,0.5,0.5,0.7S175.8,8.7,175.8,9
				z"/>
			<path id="XMLID_690_" class="st8" d="M184.6,6.8l-2.3,2.9l2.4,3.8h-2.1l-1.6-2.6l-0.6,0.7v2h-1.8V6.8h1.8v2.8h0.1l2.2-2.8H184.6z
				"/>
			<path id="XMLID_692_" class="st8" d="M187,13.5h-1.8V6.8h1.8V13.5z M186.6,6.1h-1.1l1.1-1.5h1.4L186.6,6.1z"/>
		</g>
		<g id="XMLID_628_">
			<path id="XMLID_629_" class="st8" d="M148.3,25.5v-3.3h1.5c0.3,0,0.6,0.1,0.8,0.2c0.2,0.1,0.3,0.3,0.3,0.6c0,0.2-0.1,0.4-0.2,0.5
				c-0.1,0.1-0.3,0.2-0.4,0.2v0c0.1,0,0.2,0,0.3,0.1c0.1,0,0.2,0.1,0.2,0.1c0.1,0.1,0.1,0.1,0.2,0.2c0,0.1,0.1,0.2,0.1,0.3
				c0,0.2-0.1,0.4-0.2,0.5c-0.1,0.1-0.2,0.3-0.4,0.3s-0.4,0.1-0.6,0.1H148.3z M149.2,22.8v0.7h0.4c0.2,0,0.3,0,0.4-0.1
				c0.1-0.1,0.1-0.2,0.1-0.3c0-0.1,0-0.2-0.1-0.3c-0.1-0.1-0.2-0.1-0.3-0.1H149.2z M149.2,24.1v0.8h0.4c0.2,0,0.3,0,0.4-0.1
				c0.1-0.1,0.1-0.2,0.1-0.3c0-0.1,0-0.2-0.1-0.3c-0.1-0.1-0.2-0.1-0.4-0.1H149.2z"/>
			<path id="XMLID_635_" class="st8" d="M151.2,24.1v-0.4c0-0.5,0.1-0.8,0.4-1.1s0.6-0.4,1.1-0.4c0.5,0,0.8,0.1,1.1,0.4
				c0.3,0.3,0.4,0.7,0.4,1.1v0.4c0,0.5-0.1,0.8-0.4,1.1c-0.3,0.3-0.6,0.4-1.1,0.4s-0.8-0.1-1.1-0.4
				C151.3,24.9,151.2,24.5,151.2,24.1z M153,21.3l0.6,0.6H153l-0.3-0.3h0l-0.3,0.3h-0.6l0.6-0.6H153z M152.1,23.7v0.4
				c0,0.3,0.1,0.5,0.2,0.6c0.1,0.1,0.3,0.2,0.5,0.2s0.3-0.1,0.5-0.2c0.1-0.1,0.2-0.3,0.2-0.6v-0.4c0-0.3-0.1-0.5-0.2-0.6
				c-0.1-0.1-0.3-0.2-0.4-0.2c-0.2,0-0.3,0.1-0.4,0.2C152.1,23.2,152.1,23.4,152.1,23.7z M152.4,26.4c-0.1-0.1-0.1-0.1-0.1-0.2
				c0-0.1,0-0.2,0.1-0.2c0.1-0.1,0.1-0.1,0.2-0.1c0.1,0,0.2,0,0.2,0.1c0.1,0.1,0.1,0.1,0.1,0.2c0,0.1,0,0.2-0.1,0.2
				s-0.1,0.1-0.2,0.1C152.6,26.5,152.5,26.4,152.4,26.4z"/>
			<path id="XMLID_641_" class="st8" d="M156.1,23.7v0.3c0,0.3,0.1,0.5,0.2,0.6s0.2,0.2,0.4,0.2c0.2,0,0.3-0.1,0.4-0.2
				s0.1-0.3,0.1-0.4h0.8v0.1c0,0.3-0.1,0.6-0.4,0.9c-0.3,0.2-0.6,0.3-1,0.3c-0.5,0-0.8-0.1-1.1-0.4c-0.3-0.3-0.4-0.6-0.4-1.1v-0.3
				c0-0.5,0.1-0.9,0.4-1.1s0.6-0.4,1.1-0.4c0.4,0,0.7,0.1,1,0.3c0.3,0.2,0.4,0.5,0.4,0.9v0.1h-0.8c0-0.2,0-0.3-0.1-0.4
				c-0.1-0.1-0.2-0.2-0.4-0.2c-0.2,0-0.3,0.1-0.4,0.2C156.2,23.2,156.1,23.4,156.1,23.7z"/>
			<path id="XMLID_644_" class="st8" d="M158.3,24.1v-0.4c0-0.5,0.1-0.8,0.4-1.1s0.6-0.4,1.1-0.4c0.5,0,0.8,0.1,1.1,0.4
				c0.3,0.3,0.4,0.7,0.4,1.1v0.4c0,0.5-0.1,0.8-0.4,1.1c-0.3,0.3-0.6,0.4-1.1,0.4s-0.8-0.1-1.1-0.4
				C158.4,24.9,158.3,24.5,158.3,24.1z M160.1,21.3l0.6,0.6h-0.6l-0.3-0.3h0l-0.3,0.3h-0.6l0.6-0.6H160.1z M159.2,23.7v0.4
				c0,0.3,0.1,0.5,0.2,0.6c0.1,0.1,0.3,0.2,0.5,0.2s0.3-0.1,0.5-0.2c0.1-0.1,0.2-0.3,0.2-0.6v-0.4c0-0.3-0.1-0.5-0.2-0.6
				c-0.1-0.1-0.3-0.2-0.4-0.2c-0.2,0-0.3,0.1-0.4,0.2C159.2,23.2,159.2,23.4,159.2,23.7z"/>
			<path id="XMLID_649_" class="st8" d="M162.4,25.5h-0.8v-3.3h0.7l1.3,1.8h0v-1.8h0.8v3.3h-0.7l-1.3-1.9h0V25.5z"/>
			<path id="XMLID_651_" class="st8" d="M167.6,23.3h-0.8c0-0.1-0.1-0.2-0.2-0.3c-0.1-0.1-0.2-0.1-0.4-0.1c-0.2,0-0.3,0.1-0.4,0.2
				c-0.1,0.1-0.2,0.3-0.2,0.6v0.4c0,0.6,0.2,0.8,0.6,0.8c0.2,0,0.3,0,0.4-0.1c0.1-0.1,0.2-0.2,0.2-0.3v-0.1h-0.5v-0.6h1.3v0.6
				c0,0.1,0,0.2,0,0.4c0,0.1-0.1,0.2-0.2,0.3c-0.1,0.1-0.2,0.2-0.3,0.3c-0.1,0.1-0.2,0.1-0.4,0.2c-0.2,0-0.3,0.1-0.5,0.1
				c-0.3,0-0.5,0-0.7-0.1c-0.2-0.1-0.3-0.2-0.5-0.3c-0.1-0.1-0.2-0.3-0.3-0.5c-0.1-0.2-0.1-0.4-0.1-0.6v-0.4c0-0.3,0.1-0.6,0.2-0.8
				c0.1-0.2,0.3-0.4,0.5-0.5c0.2-0.1,0.5-0.2,0.8-0.2c0.2,0,0.4,0,0.6,0.1c0.2,0.1,0.3,0.2,0.4,0.3c0.1,0.1,0.2,0.2,0.3,0.4
				C167.6,23,167.6,23.2,167.6,23.3z"/>
			<path id="XMLID_653_" class="st8" d="M170.3,25.5h-0.9v-2.6h-0.9v-0.7h2.6v0.7h-0.9V25.5z"/>
			<path id="XMLID_657_" class="st8" d="M174.3,25.5h-0.9v-1.3h-1.1v1.3h-0.9v-3.3h0.9v1.3h1.1v-1.3h0.9V25.5z"/>
			<path id="XMLID_659_" class="st8" d="M176.1,25.6c-0.4,0-0.8-0.1-1-0.3c-0.3-0.2-0.4-0.5-0.4-0.9v-2.2h0.9v2c0,0.2,0,0.3,0.1,0.4
				c0.1,0.1,0.2,0.2,0.4,0.2c0.2,0,0.3-0.1,0.4-0.2s0.1-0.2,0.1-0.4v-2h0.9c0.1,0,0.1,0,0.2-0.1c0,0,0.1-0.1,0.1-0.2v-0.3h0.6v0.5
				c0,0.2-0.1,0.4-0.2,0.5c-0.1,0.1-0.3,0.2-0.5,0.2h-0.2v1.6c0,0.4-0.1,0.7-0.4,0.9C176.9,25.5,176.6,25.6,176.1,25.6z"/>
			<path id="XMLID_663_" class="st8" d="M181.3,24.1c0,0.5-0.1,0.8-0.4,1.1c-0.3,0.3-0.6,0.4-1.1,0.4s-0.8-0.1-1.1-0.4
				c-0.3-0.3-0.4-0.6-0.4-1.1v-0.4c0-0.5,0.1-0.8,0.4-1.1s0.6-0.4,1.1-0.4c0.2,0,0.3,0,0.5,0.1c0.2,0,0.4,0.1,0.5,0.1
				c0.1,0,0.2,0,0.3-0.1c0-0.1,0.1-0.1,0.1-0.2v-0.3h0.6v0.5c0,0.2-0.1,0.4-0.2,0.5c-0.1,0.1-0.3,0.2-0.5,0.2l0,0
				c0.1,0.2,0.2,0.5,0.2,0.9V24.1z M179.2,23.7v0.4c0,0.3,0.1,0.5,0.2,0.6c0.1,0.1,0.3,0.2,0.5,0.2s0.3-0.1,0.5-0.2s0.2-0.3,0.2-0.6
				v-0.4c0-0.3-0.1-0.5-0.2-0.6s-0.3-0.2-0.5-0.2c-0.2,0-0.3,0.1-0.4,0.2C179.2,23.2,179.2,23.4,179.2,23.7z"/>
			<path id="XMLID_666_" class="st8" d="M182.7,25.5h-0.8v-3.3h0.7l1.3,1.8h0v-1.8h0.8v3.3H184l-1.3-1.9h0V25.5z"/>
			<path id="XMLID_669_" class="st8" d="M187.9,23.3h-0.8c0-0.1-0.1-0.2-0.2-0.3c-0.1-0.1-0.2-0.1-0.4-0.1c-0.2,0-0.3,0.1-0.4,0.2
				c-0.1,0.1-0.2,0.3-0.2,0.6v0.4c0,0.6,0.2,0.8,0.6,0.8c0.2,0,0.3,0,0.4-0.1c0.1-0.1,0.2-0.2,0.2-0.3v-0.1h-0.5v-0.6h1.3v0.6
				c0,0.1,0,0.2,0,0.4c0,0.1-0.1,0.2-0.2,0.3c-0.1,0.1-0.2,0.2-0.3,0.3c-0.1,0.1-0.2,0.1-0.4,0.2c-0.2,0-0.3,0.1-0.5,0.1
				c-0.3,0-0.5,0-0.7-0.1c-0.2-0.1-0.3-0.2-0.5-0.3c-0.1-0.1-0.2-0.3-0.3-0.5c-0.1-0.2-0.1-0.4-0.1-0.6v-0.4c0-0.3,0.1-0.6,0.2-0.8
				c0.1-0.2,0.3-0.4,0.5-0.5c0.2-0.1,0.5-0.2,0.8-0.2c0.2,0,0.4,0,0.6,0.1c0.2,0.1,0.3,0.2,0.4,0.3c0.1,0.1,0.2,0.2,0.3,0.4
				C187.9,23,187.9,23.2,187.9,23.3z"/>
		</g>
	</g>
</g>
</svg>
